<svg width="70" height="70" viewBox="0 0 70 70" fill="none" xmlns="http://www.w3.org/2000/svg">
<path d="M0 20C0 8.9543 8.95431 0 20 0H50C61.0457 0 70 8.95431 70 20V50C70 61.0457 61.0457 70 50 70H20C8.9543 70 0 61.0457 0 50V20Z" fill="#EBA624"/>
<path d="M58.3906 67.1797C57.0156 67.1797 55.7266 66.9609 54.5234 66.5234C53.3203 66.1016 52.1641 65.6094 51.0547 65.0469C49.9453 64.5 48.8438 64.0078 47.75 63.5703C46.6719 63.1484 45.5703 62.9375 44.4453 62.9375C43.9609 62.9375 43.4922 63.0078 43.0391 63.1484C42.6016 63.3047 42.2422 63.5391 41.9609 63.8516L40.2969 60.875C40.5938 60.5156 40.9141 60.2266 41.2578 60.0078C41.6016 59.7891 41.9688 59.625 42.3594 59.5156C42.7656 59.4062 43.2109 59.3359 43.6953 59.3047C41.0547 58.9141 38.7734 58.0078 36.8516 56.5859C34.9453 55.1641 33.4688 53.3438 32.4219 51.125C31.3906 48.9062 30.875 46.4141 30.875 43.6484C30.875 40.6484 31.5 37.9531 32.75 35.5625C34.0156 33.1562 35.8516 31.2578 38.2578 29.8672C40.6797 28.4609 43.6094 27.7578 47.0469 27.7578C50.4531 27.7578 53.3516 28.4609 55.7422 29.8672C58.1328 31.2734 59.9531 33.1719 61.2031 35.5625C62.4688 37.9531 63.1016 40.6406 63.1016 43.625C63.1016 46.2656 62.5625 48.7422 61.4844 51.0547C60.4219 53.3516 58.8359 55.2578 56.7266 56.7734C54.6328 58.2734 52.0391 59.1562 48.9453 59.4219C49.7734 59.6094 50.5625 59.8438 51.3125 60.125C52.0625 60.4062 52.8672 60.6875 53.7266 60.9688C54.6016 61.25 55.6094 61.4844 56.75 61.6719C57.9062 61.875 59.2969 61.9766 60.9219 61.9766L59.3516 67.1562C59.1953 67.1719 59.0312 67.1797 58.8594 67.1797C58.7031 67.1797 58.5469 67.1797 58.3906 67.1797ZM47 55.0625C48.75 55.0625 50.1797 54.6016 51.2891 53.6797C52.4141 52.7578 53.25 51.4453 53.7969 49.7422C54.3438 48.0234 54.6172 45.9766 54.6172 43.6016C54.6172 40.0234 53.9844 37.25 52.7188 35.2812C51.4688 33.2969 49.5625 32.3047 47 32.3047C45.2188 32.3047 43.7656 32.7734 42.6406 33.7109C41.5156 34.6328 40.6875 35.9375 40.1562 37.625C39.6406 39.3125 39.3828 41.2969 39.3828 43.5781C39.3828 45.9844 39.6562 48.0469 40.2031 49.7656C40.75 51.4688 41.5859 52.7812 42.7109 53.7031C43.8359 54.6094 45.2656 55.0625 47 55.0625Z" fill="white"/>
<path d="M19.8281 37.6094C16.0312 37.6094 12.9375 36.8984 10.5469 35.4766C8.15625 34.0547 6.39844 32.1406 5.27344 29.7344C4.16406 27.3281 3.60938 24.6406 3.60938 21.6719C3.60938 18.5625 4.22656 15.8125 5.46094 13.4219C6.71094 11.0312 8.48438 9.15625 10.7812 7.79688C13.0938 6.4375 15.8516 5.75781 19.0547 5.75781C20.5078 5.75781 21.9844 6 23.4844 6.48438C24.9844 6.95312 26.1484 7.60156 26.9766 8.42969L27.0938 6.41406H32.2969V16.0234H27.4922C27.3828 14.2578 26.7422 12.8672 25.5703 11.8516C24.3984 10.8203 22.7266 10.3047 20.5547 10.3047C18.7891 10.3047 17.2734 10.7344 16.0078 11.5938C14.7422 12.4375 13.7656 13.7031 13.0781 15.3906C12.4062 17.0625 12.0703 19.1328 12.0703 21.6016C12.0703 24.0078 12.4062 26.0703 13.0781 27.7891C13.7656 29.4922 14.75 30.7969 16.0312 31.7031C17.3125 32.6094 18.8438 33.0625 20.625 33.0625C23.0156 33.0625 24.8125 32.5312 26.0156 31.4688C27.2344 30.4062 27.9062 28.5625 28.0312 25.9375L32.8125 26.9688L32.4609 34.0938C30.6328 35.3281 28.6719 36.2266 26.5781 36.7891C24.4844 37.3359 22.2344 37.6094 19.8281 37.6094Z" fill="white"/>
</svg>
