<svg width="35" height="40" viewBox="0 0 35 40" fill="none" xmlns="http://www.w3.org/2000/svg">
<path fill-rule="evenodd" clip-rule="evenodd" d="M17.5 3.68922C10.9314 3.68922 5.6074 8.66974 5.6074 14.8145V24.4994C5.6074 24.7125 5.56796 24.9239 5.49081 25.1243L4.77757 26.9774H30.2224L29.5092 25.1243C29.432 24.9239 29.3926 24.7125 29.3926 24.4994V14.8145C29.3926 8.66974 24.0686 3.68922 17.5 3.68922ZM1.66374 14.8145C1.66374 6.63224 8.75339 0 17.5 0C26.2466 0 33.3363 6.63224 33.3363 14.8145V24.1775L34.8834 28.1972C35.1009 28.7623 35.0106 29.3912 34.6414 29.8827C34.2722 30.3742 33.6703 30.6667 33.0282 30.6667H1.97184C1.32971 30.6667 0.727794 30.3742 0.358572 29.8827C-0.0106494 29.3912 -0.100927 28.7623 0.116606 28.1972L1.66374 24.1775V14.8145Z" fill="#272727"/>
<path fill-rule="evenodd" clip-rule="evenodd" d="M11.2692 30.6667C12.2889 30.6667 13.1154 31.4441 13.1154 32.4031C13.1154 34.681 15.0782 36.5271 17.5 36.5271C19.9219 36.5271 21.8846 34.681 21.8846 32.4031C21.8846 31.4441 22.7112 30.6667 23.7308 30.6667C24.7504 30.6667 25.5769 31.4441 25.5769 32.4031C25.5769 36.599 21.9611 40 17.5 40C13.039 40 9.4231 36.599 9.4231 32.4031C9.4231 31.4441 10.2496 30.6667 11.2692 30.6667Z" fill="#272727"/>
</svg>
