<svg width="700" height="150" viewBox="0 0 700 150" fill="none" xmlns="http://www.w3.org/2000/svg">
<rect width="700" height="150" fill="#FFC222"/>
<path d="M198.016 130V117.136C197.408 117.568 196.68 117.96 195.832 118.312V116.464C196.424 115.968 196.944 115.448 197.392 114.904C197.84 114.36 198.208 113.8 198.496 113.224H199.528C199.816 113.8 200.176 114.36 200.608 114.904C201.056 115.448 201.576 115.968 202.168 116.464V118.312C201.752 118.152 201.36 117.976 200.992 117.784C200.64 117.592 200.312 117.384 200.008 117.16V130H198.016ZM215.632 114.136H227.944V116.752H215.632V114.136ZM216.112 119.032H227.416V121.6H216.112V119.032ZM214.84 124.024H228.352V126.664H214.84V124.024ZM220.216 115.072H223.072V132.16H220.216V115.072ZM224.512 109.552L227.32 110.368C226.936 111.136 226.552 111.896 226.168 112.648C225.784 113.384 225.424 114.016 225.088 114.544L222.856 113.776C223.064 113.392 223.264 112.96 223.456 112.48C223.664 111.984 223.864 111.48 224.056 110.968C224.248 110.456 224.4 109.984 224.512 109.552ZM216.352 110.56L218.68 109.72C219.064 110.344 219.416 111.024 219.736 111.76C220.056 112.496 220.28 113.144 220.408 113.704L217.936 114.664C217.824 114.104 217.616 113.44 217.312 112.672C217.024 111.904 216.704 111.2 216.352 110.56ZM206.872 116.968H214.312V119.152H206.872V116.968ZM206.968 110.368H214.264V112.528H206.968V110.368ZM206.872 120.256H214.312V122.416H206.872V120.256ZM205.72 113.584H215.152V115.864H205.72V113.584ZM208.192 123.568H214.264V130.888H208.192V128.608H211.792V125.848H208.192V123.568ZM206.8 123.568H209.248V131.824H206.8V123.568ZM244.264 112.552H246.784V129.52H244.264V112.552ZM239.728 111.424H251.56V131.584H248.872V114.088H242.296V131.8H239.728V111.424ZM241.168 119.632H249.928V122.248H241.168V119.632ZM241.168 127.888H249.904V130.504H241.168V127.888ZM233.44 121.408H235.984V132.136H233.44V121.408ZM233.344 109.576L235.888 110.536C235.568 111.16 235.224 111.8 234.856 112.456C234.504 113.096 234.16 113.712 233.824 114.304C233.488 114.896 233.16 115.424 232.84 115.888L230.896 115.048C231.184 114.568 231.48 114.008 231.784 113.368C232.088 112.728 232.376 112.08 232.648 111.424C232.936 110.768 233.168 110.152 233.344 109.576ZM236.248 112.48L238.624 113.608C238.032 114.52 237.392 115.472 236.704 116.464C236.016 117.44 235.32 118.384 234.616 119.296C233.928 120.208 233.272 121.008 232.648 121.696L230.968 120.712C231.416 120.184 231.88 119.584 232.36 118.912C232.856 118.224 233.336 117.512 233.8 116.776C234.28 116.024 234.728 115.288 235.144 114.568C235.576 113.832 235.944 113.136 236.248 112.48ZM229.624 115.24L230.992 113.272C231.408 113.624 231.832 114.016 232.264 114.448C232.712 114.88 233.12 115.312 233.488 115.744C233.872 116.16 234.16 116.552 234.352 116.92L232.912 119.152C232.72 118.784 232.44 118.368 232.072 117.904C231.72 117.44 231.328 116.976 230.896 116.512C230.464 116.048 230.04 115.624 229.624 115.24ZM235.696 118.216L237.784 117.304C238.12 117.832 238.44 118.4 238.744 119.008C239.048 119.616 239.32 120.216 239.56 120.808C239.8 121.384 239.976 121.904 240.088 122.368L237.856 123.424C237.744 122.96 237.576 122.432 237.352 121.84C237.144 121.232 236.896 120.616 236.608 119.992C236.336 119.352 236.032 118.76 235.696 118.216ZM229.576 120.112C230.68 120.048 232.008 119.96 233.56 119.848C235.128 119.736 236.712 119.624 238.312 119.512L238.36 121.744C236.888 121.904 235.416 122.064 233.944 122.224C232.488 122.384 231.168 122.528 229.984 122.656L229.576 120.112ZM236.056 124.312L238.192 123.592C238.528 124.328 238.84 125.128 239.128 125.992C239.416 126.84 239.632 127.584 239.776 128.224L237.496 129.016C237.432 128.584 237.32 128.104 237.16 127.576C237 127.032 236.824 126.48 236.632 125.92C236.44 125.344 236.248 124.808 236.056 124.312ZM230.656 123.688L233.056 124.096C232.928 125.248 232.736 126.384 232.48 127.504C232.24 128.624 231.944 129.568 231.592 130.336C231.432 130.224 231.216 130.104 230.944 129.976C230.688 129.848 230.416 129.72 230.128 129.592C229.856 129.448 229.616 129.344 229.408 129.28C229.76 128.576 230.032 127.72 230.224 126.712C230.432 125.704 230.576 124.696 230.656 123.688ZM262.384 115.264C263.072 115.328 263.76 115.384 264.448 115.432C265.152 115.464 265.864 115.48 266.584 115.48C268.056 115.48 269.52 115.416 270.976 115.288C272.432 115.16 273.776 114.96 275.008 114.688V117.688C273.76 117.864 272.408 118.008 270.952 118.12C269.496 118.216 268.04 118.264 266.584 118.264C265.88 118.264 265.176 118.256 264.472 118.24C263.784 118.208 263.088 118.168 262.384 118.12V115.264ZM271.504 111.208C271.472 111.432 271.44 111.68 271.408 111.952C271.392 112.224 271.376 112.496 271.36 112.768C271.344 113.024 271.328 113.368 271.312 113.8C271.296 114.232 271.288 114.72 271.288 115.264C271.288 115.792 271.288 116.352 271.288 116.944C271.288 118.032 271.304 119.056 271.336 120.016C271.368 120.96 271.408 121.84 271.456 122.656C271.504 123.456 271.544 124.192 271.576 124.864C271.624 125.536 271.648 126.16 271.648 126.736C271.648 127.36 271.56 127.936 271.384 128.464C271.224 128.992 270.96 129.456 270.592 129.856C270.224 130.256 269.736 130.56 269.128 130.768C268.536 130.992 267.808 131.104 266.944 131.104C265.28 131.104 263.968 130.768 263.008 130.096C262.048 129.424 261.568 128.456 261.568 127.192C261.568 126.376 261.784 125.664 262.216 125.056C262.648 124.432 263.264 123.952 264.064 123.616C264.864 123.264 265.808 123.088 266.896 123.088C268.032 123.088 269.064 123.208 269.992 123.448C270.92 123.688 271.768 124.008 272.536 124.408C273.304 124.808 273.984 125.248 274.576 125.728C275.184 126.192 275.728 126.64 276.208 127.072L274.552 129.592C273.64 128.728 272.752 127.984 271.888 127.36C271.024 126.736 270.16 126.256 269.296 125.92C268.448 125.584 267.568 125.416 266.656 125.416C265.984 125.416 265.432 125.544 265 125.8C264.584 126.056 264.376 126.416 264.376 126.88C264.376 127.36 264.592 127.712 265.024 127.936C265.456 128.16 265.984 128.272 266.608 128.272C267.104 128.272 267.496 128.192 267.784 128.032C268.072 127.856 268.272 127.608 268.384 127.288C268.512 126.952 268.576 126.552 268.576 126.088C268.576 125.672 268.56 125.128 268.528 124.456C268.496 123.784 268.456 123.032 268.408 122.2C268.376 121.368 268.344 120.504 268.312 119.608C268.28 118.696 268.264 117.808 268.264 116.944C268.264 116.032 268.256 115.208 268.24 114.472C268.24 113.72 268.24 113.16 268.24 112.792C268.24 112.616 268.224 112.368 268.192 112.048C268.16 111.728 268.12 111.448 268.072 111.208H271.504ZM259.792 111.472C259.744 111.632 259.672 111.856 259.576 112.144C259.496 112.432 259.424 112.712 259.36 112.984C259.312 113.256 259.272 113.464 259.24 113.608C259.16 113.944 259.072 114.4 258.976 114.976C258.88 115.536 258.776 116.176 258.664 116.896C258.568 117.6 258.472 118.328 258.376 119.08C258.28 119.816 258.208 120.52 258.16 121.192C258.112 121.848 258.088 122.416 258.088 122.896C258.088 123.136 258.088 123.4 258.088 123.688C258.104 123.96 258.136 124.216 258.184 124.456C258.296 124.168 258.408 123.888 258.52 123.616C258.648 123.344 258.776 123.072 258.904 122.8C259.032 122.528 259.152 122.256 259.264 121.984L260.728 123.184C260.504 123.84 260.272 124.528 260.032 125.248C259.808 125.968 259.6 126.648 259.408 127.288C259.232 127.928 259.096 128.464 259 128.896C258.968 129.056 258.936 129.248 258.904 129.472C258.888 129.696 258.88 129.88 258.88 130.024C258.88 130.152 258.88 130.304 258.88 130.48C258.896 130.672 258.912 130.848 258.928 131.008L256.216 131.224C255.96 130.376 255.736 129.296 255.544 127.984C255.352 126.656 255.256 125.176 255.256 123.544C255.256 122.648 255.296 121.712 255.376 120.736C255.456 119.744 255.544 118.792 255.64 117.88C255.752 116.968 255.864 116.136 255.976 115.384C256.088 114.616 256.176 114 256.24 113.536C256.288 113.2 256.336 112.824 256.384 112.408C256.432 111.976 256.464 111.568 256.48 111.184L259.792 111.472ZM282.232 112.552C283.112 112.648 284.104 112.72 285.208 112.768C286.312 112.816 287.496 112.84 288.76 112.84C289.544 112.84 290.352 112.824 291.184 112.792C292.032 112.76 292.848 112.72 293.632 112.672C294.416 112.624 295.112 112.568 295.72 112.504V115.696C295.16 115.744 294.48 115.792 293.68 115.84C292.896 115.888 292.072 115.928 291.208 115.96C290.36 115.976 289.552 115.984 288.784 115.984C287.536 115.984 286.376 115.96 285.304 115.912C284.232 115.864 283.208 115.8 282.232 115.72V112.552ZM284.248 122.728C284.136 123.144 284.04 123.552 283.96 123.952C283.88 124.352 283.84 124.752 283.84 125.152C283.84 125.92 284.224 126.552 284.992 127.048C285.776 127.544 287.032 127.792 288.76 127.792C289.848 127.792 290.896 127.752 291.904 127.672C292.912 127.592 293.864 127.48 294.76 127.336C295.672 127.192 296.48 127.024 297.184 126.832L297.208 130.216C296.504 130.376 295.72 130.512 294.856 130.624C293.992 130.752 293.056 130.848 292.048 130.912C291.056 130.992 290 131.032 288.88 131.032C287.056 131.032 285.528 130.832 284.296 130.432C283.064 130.032 282.144 129.456 281.536 128.704C280.928 127.936 280.624 127 280.624 125.896C280.624 125.192 280.68 124.552 280.792 123.976C280.904 123.4 281.008 122.888 281.104 122.44L284.248 122.728ZM315.184 113.56C315.024 114.776 314.816 116.072 314.56 117.448C314.304 118.824 313.96 120.216 313.528 121.624C313.064 123.24 312.52 124.632 311.896 125.8C311.272 126.968 310.584 127.872 309.832 128.512C309.096 129.136 308.288 129.448 307.408 129.448C306.528 129.448 305.712 129.152 304.96 128.56C304.224 127.952 303.632 127.12 303.184 126.064C302.752 125.008 302.536 123.808 302.536 122.464C302.536 121.072 302.816 119.76 303.376 118.528C303.936 117.296 304.712 116.208 305.704 115.264C306.712 114.304 307.88 113.552 309.208 113.008C310.552 112.464 312 112.192 313.552 112.192C315.04 112.192 316.376 112.432 317.56 112.912C318.76 113.392 319.784 114.056 320.632 114.904C321.48 115.752 322.128 116.744 322.576 117.88C323.024 119.016 323.248 120.24 323.248 121.552C323.248 123.232 322.904 124.736 322.216 126.064C321.528 127.392 320.504 128.488 319.144 129.352C317.8 130.216 316.12 130.808 314.104 131.128L312.304 128.272C312.768 128.224 313.176 128.168 313.528 128.104C313.88 128.04 314.216 127.968 314.536 127.888C315.304 127.696 316.016 127.424 316.672 127.072C317.344 126.704 317.928 126.256 318.424 125.728C318.92 125.184 319.304 124.552 319.576 123.832C319.864 123.112 320.008 122.32 320.008 121.456C320.008 120.512 319.864 119.648 319.576 118.864C319.288 118.08 318.864 117.4 318.304 116.824C317.744 116.232 317.064 115.784 316.264 115.48C315.464 115.16 314.544 115 313.504 115C312.224 115 311.096 115.232 310.12 115.696C309.144 116.144 308.32 116.728 307.648 117.448C306.976 118.168 306.464 118.944 306.112 119.776C305.776 120.608 305.608 121.4 305.608 122.152C305.608 122.952 305.704 123.624 305.896 124.168C306.088 124.696 306.32 125.096 306.592 125.368C306.88 125.624 307.184 125.752 307.504 125.752C307.84 125.752 308.168 125.584 308.488 125.248C308.824 124.896 309.152 124.368 309.472 123.664C309.792 122.96 310.112 122.072 310.432 121C310.8 119.848 311.112 118.616 311.368 117.304C311.624 115.992 311.808 114.712 311.92 113.464L315.184 113.56ZM343.36 110.584C343.664 111.032 343.992 111.56 344.344 112.168C344.696 112.776 344.984 113.296 345.208 113.728L343.264 114.544C343.024 114.064 342.744 113.536 342.424 112.96C342.104 112.368 341.784 111.84 341.464 111.376L343.36 110.584ZM346.48 109.912C346.704 110.2 346.928 110.536 347.152 110.92C347.392 111.304 347.616 111.68 347.824 112.048C348.048 112.416 348.224 112.736 348.352 113.008L346.456 113.848C346.2 113.336 345.904 112.792 345.568 112.216C345.248 111.64 344.92 111.128 344.584 110.68L346.48 109.912ZM338.824 111.064C338.808 111.176 338.784 111.36 338.752 111.616C338.72 111.872 338.688 112.144 338.656 112.432C338.624 112.704 338.608 112.944 338.608 113.152C338.608 113.632 338.608 114.16 338.608 114.736C338.608 115.312 338.608 115.888 338.608 116.464C338.608 117.024 338.608 117.536 338.608 118C338.608 118.32 338.608 118.768 338.608 119.344C338.608 119.92 338.608 120.568 338.608 121.288C338.608 122.008 338.608 122.76 338.608 123.544C338.608 124.312 338.608 125.064 338.608 125.8C338.608 126.52 338.608 127.176 338.608 127.768C338.608 128.344 338.608 128.8 338.608 129.136C338.608 129.824 338.4 130.368 337.984 130.768C337.584 131.184 336.96 131.392 336.112 131.392C335.68 131.392 335.24 131.384 334.792 131.368C334.344 131.352 333.904 131.328 333.472 131.296C333.04 131.264 332.616 131.224 332.2 131.176L331.912 128.2C332.424 128.296 332.92 128.368 333.4 128.416C333.896 128.464 334.288 128.488 334.576 128.488C334.896 128.488 335.12 128.424 335.248 128.296C335.376 128.152 335.448 127.928 335.464 127.624C335.464 127.48 335.464 127.168 335.464 126.688C335.48 126.208 335.488 125.64 335.488 124.984C335.488 124.328 335.488 123.632 335.488 122.896C335.488 122.16 335.488 121.456 335.488 120.784C335.488 120.112 335.488 119.528 335.488 119.032C335.488 118.536 335.488 118.192 335.488 118C335.488 117.712 335.488 117.28 335.488 116.704C335.488 116.112 335.488 115.488 335.488 114.832C335.488 114.176 335.488 113.616 335.488 113.152C335.488 112.832 335.464 112.456 335.416 112.024C335.368 111.576 335.32 111.256 335.272 111.064H338.824ZM327.064 114.88C327.432 114.928 327.816 114.976 328.216 115.024C328.616 115.056 329.008 115.072 329.392 115.072C329.584 115.072 329.968 115.072 330.544 115.072C331.136 115.072 331.84 115.072 332.656 115.072C333.472 115.072 334.344 115.072 335.272 115.072C336.216 115.072 337.16 115.072 338.104 115.072C339.064 115.072 339.952 115.072 340.768 115.072C341.6 115.072 342.32 115.072 342.928 115.072C343.536 115.072 343.96 115.072 344.2 115.072C344.536 115.072 344.928 115.056 345.376 115.024C345.84 114.992 346.24 114.952 346.576 114.904V118.048C346.208 118.016 345.808 118 345.376 118C344.944 117.984 344.56 117.976 344.224 117.976C343.984 117.976 343.56 117.976 342.952 117.976C342.36 117.976 341.648 117.976 340.816 117.976C340 117.976 339.12 117.976 338.176 117.976C337.232 117.976 336.288 117.976 335.344 117.976C334.4 117.976 333.52 117.976 332.704 117.976C331.888 117.976 331.184 117.976 330.592 117.976C330.016 117.976 329.616 117.976 329.392 117.976C329.04 117.976 328.648 117.984 328.216 118C327.8 118.016 327.416 118.04 327.064 118.072V114.88ZM333.184 121.384C332.912 121.928 332.584 122.512 332.2 123.136C331.816 123.76 331.4 124.384 330.952 125.008C330.52 125.632 330.096 126.216 329.68 126.76C329.264 127.288 328.888 127.728 328.552 128.08L325.96 126.304C326.36 125.936 326.768 125.504 327.184 125.008C327.616 124.496 328.032 123.96 328.432 123.4C328.848 122.84 329.224 122.28 329.56 121.72C329.912 121.16 330.216 120.624 330.472 120.112L333.184 121.384ZM343.504 120.04C343.808 120.424 344.144 120.88 344.512 121.408C344.896 121.936 345.28 122.504 345.664 123.112C346.048 123.704 346.408 124.288 346.744 124.864C347.08 125.424 347.368 125.92 347.608 126.352L344.776 127.888C344.52 127.376 344.224 126.824 343.888 126.232C343.568 125.64 343.232 125.048 342.88 124.456C342.528 123.864 342.176 123.312 341.824 122.8C341.488 122.272 341.176 121.824 340.888 121.456L343.504 120.04ZM359.296 118.768C360.032 119.184 360.832 119.68 361.696 120.256C362.576 120.816 363.464 121.4 364.36 122.008C365.256 122.616 366.096 123.208 366.88 123.784C367.68 124.36 368.352 124.872 368.896 125.32L366.616 128.032C366.088 127.552 365.432 127 364.648 126.376C363.88 125.736 363.048 125.088 362.152 124.432C361.256 123.76 360.368 123.12 359.488 122.512C358.624 121.904 357.848 121.384 357.16 120.952L359.296 118.768ZM370.576 114.688C370.432 114.912 370.288 115.176 370.144 115.48C370 115.784 369.88 116.088 369.784 116.392C369.544 117.128 369.216 117.952 368.8 118.864C368.4 119.76 367.92 120.68 367.36 121.624C366.8 122.552 366.16 123.464 365.44 124.36C364.304 125.768 362.936 127.104 361.336 128.368C359.752 129.632 357.808 130.704 355.504 131.584L352.72 129.16C354.4 128.648 355.856 128.04 357.088 127.336C358.32 126.632 359.384 125.88 360.28 125.08C361.192 124.28 361.984 123.48 362.656 122.68C363.2 122.056 363.712 121.36 364.192 120.592C364.688 119.808 365.112 119.032 365.464 118.264C365.832 117.48 366.088 116.784 366.232 116.176H358.12L359.224 113.44H366.04C366.424 113.44 366.8 113.416 367.168 113.368C367.552 113.32 367.872 113.256 368.128 113.176L370.576 114.688ZM362.656 110.992C362.368 111.408 362.08 111.856 361.792 112.336C361.52 112.816 361.312 113.184 361.168 113.44C360.624 114.4 359.936 115.424 359.104 116.512C358.272 117.584 357.336 118.632 356.296 119.656C355.272 120.68 354.184 121.592 353.032 122.392L350.44 120.4C351.848 119.52 353.04 118.6 354.016 117.64C355.008 116.664 355.832 115.728 356.488 114.832C357.144 113.92 357.672 113.112 358.072 112.408C358.264 112.12 358.464 111.736 358.672 111.256C358.896 110.76 359.064 110.312 359.176 109.912L362.656 110.992ZM378.784 111.76C379.2 112.048 379.688 112.4 380.248 112.816C380.808 113.232 381.384 113.688 381.976 114.184C382.584 114.664 383.152 115.136 383.68 115.6C384.208 116.064 384.64 116.48 384.976 116.848L382.528 119.344C382.224 119.008 381.824 118.608 381.328 118.144C380.832 117.68 380.296 117.2 379.72 116.704C379.144 116.208 378.576 115.736 378.016 115.288C377.456 114.84 376.96 114.464 376.528 114.16L378.784 111.76ZM375.784 127.744C377.032 127.568 378.208 127.32 379.312 127C380.416 126.68 381.44 126.312 382.384 125.896C383.328 125.48 384.192 125.048 384.976 124.6C386.336 123.784 387.584 122.856 388.72 121.816C389.856 120.776 390.848 119.696 391.696 118.576C392.544 117.44 393.216 116.336 393.712 115.264L395.584 118.648C394.976 119.72 394.224 120.792 393.328 121.864C392.448 122.936 391.448 123.96 390.328 124.936C389.208 125.896 388 126.76 386.704 127.528C385.888 128.024 385.008 128.496 384.064 128.944C383.12 129.376 382.12 129.76 381.064 130.096C380.024 130.448 378.936 130.72 377.8 130.912L375.784 127.744ZM408.664 110.752C408.584 111.184 408.456 111.744 408.28 112.432C408.104 113.12 407.848 113.896 407.512 114.76C407.256 115.352 406.96 115.968 406.624 116.608C406.304 117.232 405.976 117.792 405.64 118.288C405.848 118.192 406.112 118.112 406.432 118.048C406.752 117.968 407.08 117.912 407.416 117.88C407.768 117.832 408.08 117.808 408.352 117.808C409.36 117.808 410.192 118.096 410.848 118.672C411.52 119.248 411.856 120.104 411.856 121.24C411.856 121.56 411.856 121.952 411.856 122.416C411.872 122.88 411.888 123.368 411.904 123.88C411.92 124.376 411.936 124.864 411.952 125.344C411.968 125.824 411.976 126.256 411.976 126.64H409.096C409.128 126.368 409.144 126.048 409.144 125.68C409.16 125.296 409.168 124.896 409.168 124.48C409.184 124.064 409.192 123.664 409.192 123.28C409.208 122.88 409.216 122.52 409.216 122.2C409.216 121.432 409.008 120.904 408.592 120.616C408.192 120.312 407.744 120.16 407.248 120.16C406.576 120.16 405.896 120.328 405.208 120.664C404.536 120.984 403.968 121.368 403.504 121.816C403.152 122.168 402.792 122.56 402.424 122.992C402.072 123.424 401.688 123.912 401.272 124.456L398.704 122.536C399.744 121.576 400.64 120.648 401.392 119.752C402.16 118.856 402.808 117.968 403.336 117.088C403.864 116.208 404.296 115.328 404.632 114.448C404.872 113.808 405.064 113.144 405.208 112.456C405.368 111.752 405.464 111.096 405.496 110.488L408.664 110.752ZM399.64 112.96C400.248 113.056 400.952 113.128 401.752 113.176C402.552 113.224 403.256 113.248 403.864 113.248C404.92 113.248 406.072 113.224 407.32 113.176C408.584 113.128 409.864 113.048 411.16 112.936C412.456 112.808 413.688 112.648 414.856 112.456L414.832 115.24C413.984 115.352 413.064 115.456 412.072 115.552C411.096 115.632 410.096 115.704 409.072 115.768C408.064 115.816 407.096 115.856 406.168 115.888C405.24 115.904 404.416 115.912 403.696 115.912C403.376 115.912 402.976 115.912 402.496 115.912C402.032 115.896 401.552 115.88 401.056 115.864C400.56 115.832 400.088 115.8 399.64 115.768V112.96ZM418.648 119.776C418.392 119.856 418.088 119.96 417.736 120.088C417.4 120.2 417.056 120.32 416.704 120.448C416.368 120.56 416.064 120.672 415.792 120.784C415.024 121.088 414.112 121.456 413.056 121.888C412.016 122.32 410.928 122.824 409.792 123.4C409.072 123.784 408.464 124.16 407.968 124.528C407.472 124.896 407.096 125.272 406.84 125.656C406.584 126.024 406.456 126.432 406.456 126.88C406.456 127.216 406.528 127.496 406.672 127.72C406.816 127.928 407.032 128.096 407.32 128.224C407.608 128.352 407.968 128.44 408.4 128.488C408.832 128.536 409.344 128.56 409.936 128.56C410.96 128.56 412.088 128.504 413.32 128.392C414.552 128.264 415.696 128.096 416.752 127.888L416.656 130.984C416.144 131.048 415.496 131.112 414.712 131.176C413.928 131.256 413.112 131.312 412.264 131.344C411.432 131.376 410.632 131.392 409.864 131.392C408.616 131.392 407.496 131.272 406.504 131.032C405.512 130.792 404.728 130.384 404.152 129.808C403.592 129.216 403.312 128.408 403.312 127.384C403.312 126.552 403.496 125.8 403.864 125.128C404.248 124.456 404.752 123.848 405.376 123.304C406 122.76 406.68 122.272 407.416 121.84C408.168 121.392 408.904 120.984 409.624 120.616C410.36 120.232 411.024 119.904 411.616 119.632C412.208 119.36 412.76 119.12 413.272 118.912C413.8 118.688 414.304 118.464 414.784 118.24C415.248 118.032 415.696 117.832 416.128 117.64C416.56 117.432 417 117.216 417.448 116.992L418.648 119.776ZM442.576 115.072C442.448 115.296 442.312 115.568 442.168 115.888C442.024 116.192 441.896 116.496 441.784 116.8C441.576 117.504 441.28 118.312 440.896 119.224C440.528 120.12 440.064 121.056 439.504 122.032C438.96 122.992 438.328 123.92 437.608 124.816C436.456 126.192 435.112 127.44 433.576 128.56C432.056 129.68 430.168 130.688 427.912 131.584L425.08 129.04C426.712 128.56 428.12 128.008 429.304 127.384C430.488 126.76 431.52 126.096 432.4 125.392C433.28 124.672 434.064 123.912 434.752 123.112C435.312 122.488 435.824 121.784 436.288 121C436.752 120.2 437.152 119.408 437.488 118.624C437.824 117.84 438.048 117.152 438.16 116.56H430.072L431.176 113.848C431.4 113.848 431.744 113.848 432.208 113.848C432.688 113.848 433.224 113.848 433.816 113.848C434.424 113.848 435.016 113.848 435.592 113.848C436.184 113.848 436.696 113.848 437.128 113.848C437.576 113.848 437.88 113.848 438.04 113.848C438.408 113.848 438.776 113.824 439.144 113.776C439.528 113.728 439.856 113.656 440.128 113.56L442.576 115.072ZM434.752 111.28C434.464 111.696 434.184 112.144 433.912 112.624C433.64 113.104 433.432 113.472 433.288 113.728C432.744 114.688 432.072 115.688 431.272 116.728C430.488 117.752 429.592 118.752 428.584 119.728C427.576 120.688 426.504 121.568 425.368 122.368L422.656 120.376C423.712 119.72 424.64 119.048 425.44 118.36C426.256 117.672 426.96 116.992 427.552 116.32C428.144 115.632 428.648 114.976 429.064 114.352C429.496 113.712 429.864 113.144 430.168 112.648C430.36 112.344 430.56 111.952 430.768 111.472C430.976 110.976 431.136 110.528 431.248 110.128L434.752 111.28ZM464.272 111.376C464.256 111.712 464.232 112.08 464.2 112.48C464.184 112.864 464.176 113.296 464.176 113.776C464.176 114.192 464.176 114.696 464.176 115.288C464.176 115.88 464.176 116.472 464.176 117.064C464.176 117.64 464.176 118.128 464.176 118.528C464.176 119.808 464.112 120.928 463.984 121.888C463.872 122.848 463.696 123.688 463.456 124.408C463.216 125.128 462.92 125.768 462.568 126.328C462.232 126.872 461.84 127.392 461.392 127.888C460.864 128.464 460.256 128.984 459.568 129.448C458.88 129.896 458.184 130.272 457.48 130.576C456.792 130.896 456.152 131.152 455.56 131.344L453.04 128.704C454.24 128.432 455.32 128.056 456.28 127.576C457.256 127.08 458.104 126.448 458.824 125.68C459.24 125.216 459.576 124.752 459.832 124.288C460.088 123.824 460.28 123.312 460.408 122.752C460.552 122.176 460.648 121.528 460.696 120.808C460.76 120.088 460.792 119.264 460.792 118.336C460.792 117.92 460.792 117.424 460.792 116.848C460.792 116.272 460.792 115.704 460.792 115.144C460.792 114.584 460.792 114.128 460.792 113.776C460.792 113.296 460.776 112.864 460.744 112.48C460.728 112.08 460.696 111.712 460.648 111.376H464.272ZM453.136 111.568C453.12 111.856 453.104 112.144 453.088 112.432C453.072 112.704 453.064 113.032 453.064 113.416C453.064 113.592 453.064 113.88 453.064 114.28C453.064 114.68 453.064 115.152 453.064 115.696C453.064 116.224 453.064 116.784 453.064 117.376C453.064 117.952 453.064 118.512 453.064 119.056C453.064 119.6 453.064 120.096 453.064 120.544C453.064 120.976 453.064 121.304 453.064 121.528C453.064 121.832 453.072 122.184 453.088 122.584C453.104 122.984 453.12 123.328 453.136 123.616H449.656C449.672 123.392 449.696 123.072 449.728 122.656C449.76 122.24 449.776 121.856 449.776 121.504C449.776 121.28 449.776 120.952 449.776 120.52C449.776 120.088 449.776 119.6 449.776 119.056C449.776 118.496 449.776 117.928 449.776 117.352C449.776 116.76 449.776 116.2 449.776 115.672C449.776 115.144 449.776 114.68 449.776 114.28C449.776 113.88 449.776 113.592 449.776 113.416C449.776 113.192 449.768 112.904 449.752 112.552C449.736 112.184 449.712 111.856 449.68 111.568H453.136ZM481.12 115.744C481.232 116 481.376 116.368 481.552 116.848C481.744 117.312 481.944 117.816 482.152 118.36C482.36 118.888 482.544 119.392 482.704 119.872C482.864 120.352 482.992 120.728 483.088 121L480.208 122.008C480.144 121.704 480.032 121.32 479.872 120.856C479.712 120.392 479.536 119.904 479.344 119.392C479.152 118.864 478.96 118.36 478.768 117.88C478.576 117.4 478.408 117 478.264 116.68L481.12 115.744ZM489.976 117.496C489.848 117.88 489.736 118.208 489.64 118.48C489.56 118.752 489.48 119.008 489.4 119.248C489.096 120.464 488.68 121.68 488.152 122.896C487.624 124.096 486.952 125.224 486.136 126.28C485.016 127.72 483.744 128.944 482.32 129.952C480.912 130.944 479.504 131.704 478.096 132.232L475.576 129.664C476.456 129.424 477.384 129.072 478.36 128.608C479.336 128.128 480.28 127.552 481.192 126.88C482.104 126.208 482.888 125.464 483.544 124.648C484.088 123.96 484.568 123.176 484.984 122.296C485.416 121.4 485.768 120.448 486.04 119.44C486.328 118.416 486.52 117.408 486.616 116.416L489.976 117.496ZM475.552 117.016C475.712 117.32 475.888 117.712 476.08 118.192C476.288 118.672 476.496 119.176 476.704 119.704C476.912 120.232 477.112 120.744 477.304 121.24C477.512 121.736 477.672 122.152 477.784 122.488L474.856 123.592C474.76 123.272 474.616 122.856 474.424 122.344C474.248 121.832 474.048 121.296 473.824 120.736C473.6 120.16 473.384 119.632 473.176 119.152C472.984 118.672 472.816 118.304 472.672 118.048L475.552 117.016ZM514.576 115.072C514.448 115.296 514.312 115.568 514.168 115.888C514.024 116.192 513.896 116.496 513.784 116.8C513.576 117.504 513.28 118.312 512.896 119.224C512.528 120.12 512.064 121.056 511.504 122.032C510.96 122.992 510.328 123.92 509.608 124.816C508.456 126.192 507.112 127.44 505.576 128.56C504.056 129.68 502.168 130.688 499.912 131.584L497.08 129.04C498.712 128.56 500.12 128.008 501.304 127.384C502.488 126.76 503.52 126.096 504.4 125.392C505.28 124.672 506.064 123.912 506.752 123.112C507.312 122.488 507.824 121.784 508.288 121C508.752 120.2 509.152 119.408 509.488 118.624C509.824 117.84 510.048 117.152 510.16 116.56H502.072L503.176 113.848C503.4 113.848 503.744 113.848 504.208 113.848C504.688 113.848 505.224 113.848 505.816 113.848C506.424 113.848 507.016 113.848 507.592 113.848C508.184 113.848 508.696 113.848 509.128 113.848C509.576 113.848 509.88 113.848 510.04 113.848C510.408 113.848 510.776 113.824 511.144 113.776C511.528 113.728 511.856 113.656 512.128 113.56L514.576 115.072ZM506.752 111.28C506.464 111.696 506.184 112.144 505.912 112.624C505.64 113.104 505.432 113.472 505.288 113.728C504.744 114.688 504.072 115.688 503.272 116.728C502.488 117.752 501.592 118.752 500.584 119.728C499.576 120.688 498.504 121.568 497.368 122.368L494.656 120.376C495.712 119.72 496.64 119.048 497.44 118.36C498.256 117.672 498.96 116.992 499.552 116.32C500.144 115.632 500.648 114.976 501.064 114.352C501.496 113.712 501.864 113.144 502.168 112.648C502.36 112.344 502.56 111.952 502.768 111.472C502.976 110.976 503.136 110.528 503.248 110.128L506.752 111.28ZM522.016 130V117.136C521.408 117.568 520.68 117.96 519.832 118.312V116.464C520.424 115.968 520.944 115.448 521.392 114.904C521.84 114.36 522.208 113.8 522.496 113.224H523.528C523.816 113.8 524.176 114.36 524.608 114.904C525.056 115.448 525.576 115.968 526.168 116.464V118.312C525.752 118.152 525.36 117.976 524.992 117.784C524.64 117.592 524.312 117.384 524.008 117.16V130H522.016Z" fill="#B47B40"/>
<path d="M232.104 87.976C232.232 87.72 232.317 87.4747 232.36 87.24C232.403 87.0053 232.424 86.728 232.424 86.408C232.424 86.088 232.424 85.4907 232.424 84.616C232.424 83.7413 232.424 82.696 232.424 81.48C232.424 80.264 232.424 78.9947 232.424 77.672C232.424 76.328 232.424 75.0267 232.424 73.768C232.424 72.488 232.424 71.3573 232.424 70.376C232.424 69.3733 232.424 68.616 232.424 68.104C232.424 67.8267 232.403 67.496 232.36 67.112C232.339 66.728 232.307 66.3653 232.264 66.024C232.243 65.6827 232.2 65.4053 232.136 65.192H235.304C235.24 65.576 235.187 66.0453 235.144 66.6C235.101 67.1333 235.08 67.6347 235.08 68.104C235.08 68.5307 235.08 69.1493 235.08 69.96C235.08 70.7707 235.08 71.6987 235.08 72.744C235.08 73.768 235.08 74.856 235.08 76.008C235.08 77.16 235.08 78.2907 235.08 79.4C235.08 80.5093 235.08 81.544 235.08 82.504C235.08 83.4427 235.08 84.2427 235.08 84.904C235.08 85.5653 235.08 86.0133 235.08 86.248C236.616 85.864 238.195 85.32 239.816 84.616C241.459 83.912 243.059 83.0907 244.616 82.152C246.195 81.192 247.667 80.1467 249.032 79.016C250.419 77.864 251.603 76.6373 252.584 75.336L254.024 77.576C251.955 80.1573 249.309 82.4187 246.088 84.36C242.888 86.3013 239.293 87.848 235.304 89C235.133 89.0427 234.931 89.1067 234.696 89.192C234.461 89.2987 234.216 89.4267 233.96 89.576L232.104 87.976ZM279.112 67.304C279.389 67.688 279.709 68.1787 280.072 68.776C280.456 69.3733 280.829 69.992 281.192 70.632C281.576 71.272 281.896 71.848 282.152 72.36L280.264 73.224C279.987 72.648 279.688 72.0613 279.368 71.464C279.048 70.8667 278.707 70.28 278.344 69.704C278.003 69.1067 277.651 68.5627 277.288 68.072L279.112 67.304ZM283.208 65.672C283.507 66.0347 283.848 66.5147 284.232 67.112C284.616 67.7093 285 68.328 285.384 68.968C285.768 69.608 286.088 70.1733 286.344 70.664L284.488 71.56C284.232 70.984 283.933 70.408 283.592 69.832C283.251 69.2347 282.888 68.648 282.504 68.072C282.141 67.496 281.779 66.9733 281.416 66.504L283.208 65.672ZM258.696 80.584C259.123 80.2213 259.496 79.88 259.816 79.56C260.157 79.24 260.541 78.8667 260.968 78.44C261.352 78.056 261.789 77.5653 262.28 76.968C262.792 76.3707 263.336 75.7307 263.912 75.048C264.509 74.344 265.096 73.64 265.672 72.936C266.248 72.2107 266.781 71.56 267.272 70.984C268.125 69.9813 268.968 69.4267 269.8 69.32C270.632 69.192 271.592 69.64 272.68 70.664C273.341 71.2613 274.056 71.9653 274.824 72.776C275.613 73.5653 276.392 74.3653 277.16 75.176C277.928 75.9867 278.621 76.7227 279.24 77.384C279.965 78.1307 280.776 78.9947 281.672 79.976C282.568 80.936 283.485 81.928 284.424 82.952C285.363 83.9547 286.237 84.8933 287.048 85.768L284.84 88.104C284.093 87.1867 283.293 86.2373 282.44 85.256C281.608 84.2533 280.776 83.2827 279.944 82.344C279.133 81.384 278.387 80.52 277.704 79.752C277.235 79.2187 276.712 78.6427 276.136 78.024C275.56 77.4053 274.984 76.7867 274.408 76.168C273.832 75.5493 273.288 74.9733 272.776 74.44C272.285 73.9067 271.869 73.48 271.528 73.16C270.909 72.5627 270.397 72.2853 269.992 72.328C269.608 72.3707 269.139 72.7227 268.584 73.384C268.2 73.8533 267.763 74.408 267.272 75.048C266.781 75.6667 266.269 76.3173 265.736 77C265.203 77.6827 264.691 78.3333 264.2 78.952C263.709 79.5707 263.283 80.104 262.92 80.552C262.6 80.9573 262.269 81.384 261.928 81.832C261.608 82.28 261.331 82.6747 261.096 83.016L258.696 80.584ZM305.768 88.328C305.832 88.072 305.875 87.7947 305.896 87.496C305.939 87.176 305.96 86.856 305.96 86.536C305.96 86.3227 305.96 85.8533 305.96 85.128C305.96 84.4027 305.96 83.5173 305.96 82.472C305.96 81.4053 305.96 80.2533 305.96 79.016C305.96 77.7787 305.96 76.5413 305.96 75.304C305.96 74.0453 305.96 72.872 305.96 71.784C305.96 70.696 305.96 69.7573 305.96 68.968C305.96 68.1787 305.96 67.6453 305.96 67.368C305.96 66.7493 305.939 66.2373 305.896 65.832C305.853 65.4053 305.821 65.128 305.8 65H308.744C308.744 65.128 308.723 65.4053 308.68 65.832C308.637 66.2587 308.616 66.7707 308.616 67.368C308.616 67.6667 308.616 68.2 308.616 68.968C308.616 69.7147 308.616 70.632 308.616 71.72C308.616 72.7867 308.616 73.9387 308.616 75.176C308.616 76.392 308.616 77.5973 308.616 78.792C308.616 79.9867 308.616 81.096 308.616 82.12C308.616 83.1227 308.616 83.9547 308.616 84.616C308.616 85.2773 308.616 85.6827 308.616 85.832C309.619 85.3627 310.685 84.744 311.816 83.976C312.947 83.208 314.045 82.312 315.112 81.288C316.2 80.264 317.149 79.1547 317.96 77.96L319.464 80.136C318.547 81.3733 317.469 82.5573 316.232 83.688C315.016 84.8187 313.747 85.832 312.424 86.728C311.101 87.624 309.811 88.3813 308.552 89C308.296 89.1493 308.072 89.288 307.88 89.416C307.709 89.544 307.571 89.6507 307.464 89.736L305.768 88.328ZM291.112 88.168C292.456 87.208 293.597 86.0453 294.536 84.68C295.475 83.3147 296.189 81.8533 296.68 80.296C296.915 79.5707 297.096 78.664 297.224 77.576C297.352 76.488 297.448 75.336 297.512 74.12C297.576 72.8827 297.608 71.688 297.608 70.536C297.629 69.3627 297.64 68.328 297.64 67.432C297.64 66.9627 297.619 66.5467 297.576 66.184C297.533 65.8 297.48 65.4373 297.416 65.096H300.36C300.339 65.224 300.317 65.416 300.296 65.672C300.275 65.9067 300.253 66.1733 300.232 66.472C300.211 66.7707 300.2 67.08 300.2 67.4C300.2 68.296 300.189 69.352 300.168 70.568C300.147 71.7627 300.093 73.0213 300.008 74.344C299.944 75.6453 299.848 76.8827 299.72 78.056C299.613 79.2293 299.443 80.2107 299.208 81C298.739 82.7067 298.003 84.3173 297 85.832C296.019 87.3467 294.856 88.6693 293.512 89.8L291.112 88.168ZM335.72 63.688C335.592 64.328 335.421 65.0853 335.208 65.96C335.016 66.8133 334.696 67.784 334.248 68.872C333.864 69.832 333.384 70.824 332.808 71.848C332.253 72.872 331.656 73.8 331.016 74.632C331.421 74.376 331.88 74.1627 332.392 73.992C332.904 73.8 333.427 73.6613 333.96 73.576C334.515 73.4907 335.016 73.448 335.464 73.448C336.701 73.448 337.747 73.8 338.6 74.504C339.453 75.1867 339.88 76.1893 339.88 77.512C339.88 77.9173 339.88 78.44 339.88 79.08C339.88 79.6987 339.88 80.36 339.88 81.064C339.901 81.7467 339.923 82.4187 339.944 83.08C339.965 83.7413 339.976 84.3173 339.976 84.808H337.512C337.533 84.3813 337.555 83.88 337.576 83.304C337.597 82.728 337.608 82.12 337.608 81.48C337.629 80.84 337.629 80.232 337.608 79.656C337.608 79.08 337.608 78.5893 337.608 78.184C337.608 77.2453 337.32 76.5627 336.744 76.136C336.189 75.688 335.485 75.464 334.632 75.464C333.629 75.464 332.637 75.688 331.656 76.136C330.696 76.5627 329.853 77.1173 329.128 77.8C328.659 78.248 328.189 78.76 327.72 79.336C327.272 79.8907 326.771 80.488 326.216 81.128L324.04 79.528C325.576 78.0347 326.856 76.6373 327.88 75.336C328.904 74.0347 329.736 72.8293 330.376 71.72C331.016 70.5893 331.517 69.576 331.88 68.68C332.221 67.784 332.499 66.888 332.712 65.992C332.925 65.0747 333.053 64.232 333.096 63.464L335.72 63.688ZM324.776 67.144C325.629 67.2507 326.557 67.336 327.56 67.4C328.563 67.464 329.437 67.496 330.184 67.496C331.613 67.496 333.149 67.464 334.792 67.4C336.435 67.3147 338.088 67.1973 339.752 67.048C341.437 66.8987 343.037 66.6853 344.552 66.408L344.52 68.776C343.411 68.968 342.227 69.128 340.968 69.256C339.709 69.3627 338.429 69.4587 337.128 69.544C335.827 69.608 334.568 69.6613 333.352 69.704C332.157 69.7253 331.048 69.736 330.024 69.736C329.576 69.736 329.053 69.736 328.456 69.736C327.88 69.7147 327.272 69.6933 326.632 69.672C325.992 69.6293 325.373 69.5867 324.776 69.544V67.144ZM349.224 74.888C348.947 74.952 348.637 75.048 348.296 75.176C347.976 75.2827 347.645 75.4 347.304 75.528C346.984 75.656 346.675 75.784 346.376 75.912C345.267 76.3387 343.976 76.8613 342.504 77.48C341.032 78.0987 339.528 78.8133 337.992 79.624C336.925 80.1573 335.987 80.7227 335.176 81.32C334.365 81.896 333.725 82.504 333.256 83.144C332.787 83.7627 332.552 84.4453 332.552 85.192C332.552 85.8107 332.691 86.312 332.968 86.696C333.267 87.08 333.683 87.3787 334.216 87.592C334.749 87.784 335.357 87.912 336.04 87.976C336.744 88.04 337.512 88.072 338.344 88.072C339.581 88.072 340.989 88.008 342.568 87.88C344.168 87.7307 345.672 87.5387 347.08 87.304L347.016 89.864C346.205 89.9707 345.288 90.0667 344.264 90.152C343.261 90.2373 342.237 90.3013 341.192 90.344C340.168 90.408 339.187 90.44 338.248 90.44C336.733 90.44 335.347 90.3013 334.088 90.024C332.851 89.7467 331.859 89.256 331.112 88.552C330.365 87.848 329.992 86.8453 329.992 85.544C329.992 84.584 330.216 83.7093 330.664 82.92C331.112 82.1093 331.709 81.3733 332.456 80.712C333.224 80.0507 334.067 79.4427 334.984 78.888C335.901 78.312 336.84 77.7893 337.8 77.32C338.824 76.7653 339.784 76.2853 340.68 75.88C341.597 75.4747 342.461 75.1013 343.272 74.76C344.083 74.4187 344.84 74.0773 345.544 73.736C346.013 73.5227 346.461 73.32 346.888 73.128C347.315 72.936 347.741 72.7227 348.168 72.488L349.224 74.888ZM368.04 72.488H381.192V74.888H368.04V72.488ZM354.632 87.624H383.4V90.024H354.632V87.624ZM366.664 62.6H369.192V88.904H366.664V62.6ZM408.68 64.52C408.659 64.7973 408.637 65.096 408.616 65.416C408.595 65.7147 408.584 66.0453 408.584 66.408C408.563 66.6427 408.552 67.0267 408.552 67.56C408.573 68.0933 408.584 68.7013 408.584 69.384C408.605 70.0453 408.616 70.728 408.616 71.432C408.637 72.1147 408.648 72.7547 408.648 73.352C408.648 73.9493 408.648 74.4293 408.648 74.792C408.648 76.6267 408.605 78.3333 408.52 79.912C408.456 81.4907 408.221 82.9627 407.816 84.328C407.411 85.6933 406.739 86.9627 405.8 88.136C404.883 89.288 403.571 90.3653 401.864 91.368L399.528 89.544C400.04 89.3307 400.584 89.0427 401.16 88.68C401.757 88.296 402.248 87.912 402.632 87.528C403.507 86.7813 404.179 85.992 404.648 85.16C405.139 84.3067 405.491 83.368 405.704 82.344C405.939 81.32 406.088 80.1893 406.152 78.952C406.216 77.7147 406.248 76.328 406.248 74.792C406.248 74.28 406.237 73.6293 406.216 72.84C406.216 72.0293 406.195 71.1973 406.152 70.344C406.131 69.4693 406.109 68.68 406.088 67.976C406.067 67.272 406.045 66.76 406.024 66.44C406.003 66.056 405.949 65.704 405.864 65.384C405.8 65.064 405.747 64.776 405.704 64.52H408.68ZM397.32 71.144C397.789 71.208 398.312 71.272 398.888 71.336C399.464 71.4 400.061 71.4427 400.68 71.464C401.32 71.4853 401.917 71.496 402.472 71.496C403.795 71.496 405.149 71.464 406.536 71.4C407.944 71.336 409.299 71.2293 410.6 71.08C411.923 70.9307 413.117 70.7387 414.184 70.504L414.152 73.096C413.128 73.2667 411.965 73.416 410.664 73.544C409.384 73.6507 408.04 73.736 406.632 73.8C405.245 73.864 403.869 73.896 402.504 73.896C402.013 73.896 401.448 73.8853 400.808 73.864C400.168 73.8427 399.539 73.8213 398.92 73.8C398.323 73.7573 397.789 73.7253 397.32 73.704V71.144ZM392.84 65C392.755 65.2987 392.659 65.64 392.552 66.024C392.445 66.408 392.349 66.76 392.264 67.08C392.008 68.232 391.763 69.512 391.528 70.92C391.293 72.328 391.112 73.7893 390.984 75.304C390.856 76.7973 390.813 78.2907 390.856 79.784C390.899 81.256 391.069 82.6533 391.368 83.976C391.603 83.2933 391.869 82.504 392.168 81.608C392.488 80.712 392.797 79.8693 393.096 79.08L394.472 79.912C394.216 80.6373 393.949 81.4587 393.672 82.376C393.395 83.272 393.139 84.136 392.904 84.968C392.691 85.7787 392.52 86.4507 392.392 86.984C392.328 87.2187 392.285 87.4747 392.264 87.752C392.243 88.0293 392.232 88.2533 392.232 88.424C392.253 88.5947 392.264 88.776 392.264 88.968C392.285 89.16 392.307 89.3413 392.328 89.512L390.152 89.768C389.939 89.1067 389.693 88.2427 389.416 87.176C389.16 86.088 388.936 84.8933 388.744 83.592C388.552 82.2693 388.456 80.9467 388.456 79.624C388.456 77.8747 388.531 76.2 388.68 74.6C388.851 72.9787 389.032 71.5067 389.224 70.184C389.416 68.84 389.565 67.7307 389.672 66.856C389.736 66.472 389.779 66.088 389.8 65.704C389.821 65.32 389.843 64.9893 389.864 64.712L392.84 65ZM411.208 63.688C411.507 64.264 411.837 64.9787 412.2 65.832C412.563 66.6853 412.851 67.4427 413.064 68.104L411.464 68.68C411.229 67.976 410.941 67.208 410.6 66.376C410.28 65.5227 409.971 64.7867 409.672 64.168L411.208 63.688ZM414.408 62.696C414.707 63.272 415.037 63.9867 415.4 64.84C415.784 65.6933 416.093 66.44 416.328 67.08L414.728 67.656C414.472 66.9307 414.184 66.1627 413.864 65.352C413.544 64.52 413.213 63.8053 412.872 63.208L414.408 62.696ZM427.72 63.912C428.403 64.1253 429.288 64.36 430.376 64.616C431.485 64.872 432.648 65.128 433.864 65.384C435.101 65.6187 436.275 65.832 437.384 66.024C438.493 66.1947 439.4 66.312 440.104 66.376L439.496 68.84C438.899 68.7547 438.163 68.6373 437.288 68.488C436.435 68.3387 435.517 68.168 434.536 67.976C433.555 67.784 432.584 67.592 431.624 67.4C430.664 67.1867 429.789 66.9947 429 66.824C428.211 66.632 427.571 66.472 427.08 66.344L427.72 63.912ZM427.016 69.736C426.909 70.2907 426.792 70.9733 426.664 71.784C426.557 72.5733 426.44 73.4053 426.312 74.28C426.184 75.1547 426.067 75.9867 425.96 76.776C425.853 77.5653 425.757 78.216 425.672 78.728C427.229 77.384 428.872 76.4027 430.6 75.784C432.349 75.144 434.184 74.824 436.104 74.824C437.747 74.824 439.176 75.1227 440.392 75.72C441.608 76.296 442.557 77.096 443.24 78.12C443.923 79.1227 444.264 80.2533 444.264 81.512C444.264 82.9413 443.933 84.2427 443.272 85.416C442.632 86.568 441.619 87.5387 440.232 88.328C438.867 89.1173 437.117 89.672 434.984 89.992C432.851 90.3333 430.291 90.376 427.304 90.12L426.536 87.496C429.928 87.9013 432.733 87.8907 434.952 87.464C437.171 87.016 438.824 86.2693 439.912 85.224C441.021 84.1573 441.576 82.8987 441.576 81.448C441.576 80.5947 441.331 79.8373 440.84 79.176C440.349 78.5147 439.677 78.0027 438.824 77.64C437.992 77.256 437.032 77.064 435.944 77.064C433.853 77.064 431.955 77.448 430.248 78.216C428.563 78.9627 427.155 80.008 426.024 81.352C425.789 81.6293 425.597 81.9067 425.448 82.184C425.299 82.44 425.171 82.696 425.064 82.952L422.696 82.376C422.824 81.7787 422.952 81.064 423.08 80.232C423.208 79.3787 423.336 78.472 423.464 77.512C423.592 76.5307 423.709 75.5493 423.816 74.568C423.944 73.5867 424.051 72.648 424.136 71.752C424.221 70.8347 424.285 70.0453 424.328 69.384L427.016 69.736ZM480.168 86.568C479.315 87.4213 478.397 88.0827 477.416 88.552C476.435 89 475.389 89.224 474.28 89.224C473.235 89.224 472.381 88.8827 471.72 88.2C471.059 87.5173 470.728 86.5147 470.728 85.192C470.728 84.296 470.792 83.3253 470.92 82.28C471.048 81.2347 471.187 80.168 471.336 79.08C471.485 77.9707 471.624 76.9253 471.752 75.944C471.88 74.9413 471.944 74.0453 471.944 73.256C471.944 72.3387 471.72 71.6773 471.272 71.272C470.824 70.8453 470.184 70.632 469.352 70.632C468.605 70.632 467.773 70.856 466.856 71.304C465.939 71.7307 465 72.3173 464.04 73.064C463.08 73.7893 462.141 74.6107 461.224 75.528C460.307 76.424 459.464 77.32 458.696 78.216L458.76 75.048C459.165 74.6213 459.677 74.12 460.296 73.544C460.936 72.968 461.64 72.3707 462.408 71.752C463.197 71.1333 464.029 70.5573 464.904 70.024C465.779 69.4907 466.643 69.064 467.496 68.744C468.371 68.424 469.203 68.264 469.992 68.264C470.995 68.264 471.827 68.4453 472.488 68.808C473.149 69.1493 473.64 69.6507 473.96 70.312C474.28 70.952 474.44 71.6987 474.44 72.552C474.44 73.3413 474.376 74.2587 474.248 75.304C474.141 76.328 474.003 77.3947 473.832 78.504C473.683 79.6133 473.544 80.6907 473.416 81.736C473.309 82.7813 473.256 83.7093 473.256 84.52C473.256 85.0533 473.384 85.512 473.64 85.896C473.917 86.28 474.344 86.472 474.92 86.472C475.688 86.472 476.477 86.248 477.288 85.8C478.12 85.3307 478.941 84.6693 479.752 83.816L480.168 86.568ZM458.664 71.272C458.408 71.2933 458.013 71.3467 457.48 71.432C456.968 71.496 456.381 71.5707 455.72 71.656C455.059 71.7413 454.387 71.8373 453.704 71.944C453.021 72.0293 452.381 72.1147 451.784 72.2L451.528 69.576C451.869 69.5973 452.2 69.608 452.52 69.608C452.861 69.5867 453.224 69.5653 453.608 69.544C454.056 69.5227 454.6 69.48 455.24 69.416C455.901 69.3307 456.584 69.2453 457.288 69.16C458.013 69.0533 458.685 68.9467 459.304 68.84C459.944 68.712 460.445 68.584 460.808 68.456L461.736 69.576C461.544 69.832 461.331 70.152 461.096 70.536C460.861 70.8987 460.627 71.272 460.392 71.656C460.157 72.04 459.955 72.3813 459.784 72.68L458.792 77.032C458.429 77.608 457.981 78.2907 457.448 79.08C456.915 79.8693 456.349 80.7013 455.752 81.576C455.176 82.4293 454.589 83.2827 453.992 84.136C453.395 84.968 452.851 85.736 452.36 86.44L450.728 84.232C451.133 83.7413 451.603 83.144 452.136 82.44C452.691 81.7147 453.267 80.936 453.864 80.104C454.483 79.272 455.08 78.4613 455.656 77.672C456.253 76.8613 456.776 76.1147 457.224 75.432C457.693 74.7493 458.045 74.1947 458.28 73.768L458.408 72.136L458.664 71.272ZM458.376 65.96C458.376 65.5973 458.365 65.2133 458.344 64.808C458.344 64.4027 458.312 63.9973 458.248 63.592L461.256 63.688C461.171 64.1147 461.064 64.7867 460.936 65.704C460.808 66.6 460.68 67.6667 460.552 68.904C460.445 70.1413 460.328 71.4427 460.2 72.808C460.093 74.1733 460.008 75.528 459.944 76.872C459.88 78.1947 459.848 79.4213 459.848 80.552C459.848 81.512 459.848 82.408 459.848 83.24C459.848 84.0507 459.859 84.8613 459.88 85.672C459.901 86.4613 459.933 87.3253 459.976 88.264C459.997 88.5413 460.019 88.8613 460.04 89.224C460.061 89.5867 460.093 89.9173 460.136 90.216H457.352C457.395 89.9173 457.416 89.5867 457.416 89.224C457.437 88.8827 457.448 88.584 457.448 88.328C457.469 87.304 457.48 86.3973 457.48 85.608C457.48 84.8187 457.48 84.008 457.48 83.176C457.501 82.3227 457.523 81.3093 457.544 80.136C457.544 79.6667 457.565 79.0267 457.608 78.216C457.651 77.384 457.704 76.4773 457.768 75.496C457.832 74.4933 457.896 73.48 457.96 72.456C458.024 71.432 458.088 70.472 458.152 69.576C458.216 68.6587 458.269 67.88 458.312 67.24C458.355 66.6 458.376 66.1733 458.376 65.96ZM488.616 65.416C488.979 65.4587 489.363 65.4907 489.768 65.512C490.195 65.5333 490.568 65.544 490.888 65.544C491.208 65.544 491.731 65.5333 492.456 65.512C493.203 65.4907 494.035 65.4693 494.952 65.448C495.891 65.4053 496.819 65.3733 497.736 65.352C498.675 65.3093 499.507 65.2667 500.232 65.224C500.979 65.1813 501.523 65.1493 501.864 65.128C502.333 65.0853 502.696 65.0427 502.952 65C503.208 64.9573 503.421 64.9147 503.592 64.872L505.064 66.728C504.787 66.92 504.488 67.1227 504.168 67.336C503.869 67.5493 503.571 67.784 503.272 68.04C502.867 68.3387 502.323 68.776 501.64 69.352C500.957 69.9067 500.2 70.536 499.368 71.24C498.557 71.9227 497.757 72.5947 496.968 73.256C496.179 73.9173 495.464 74.5147 494.824 75.048C495.571 74.792 496.317 74.6213 497.064 74.536C497.832 74.4293 498.568 74.376 499.272 74.376C501.043 74.376 502.611 74.7067 503.976 75.368C505.363 76.008 506.44 76.8933 507.208 78.024C507.997 79.1547 508.392 80.4453 508.392 81.896C508.392 83.6027 507.944 85.096 507.048 86.376C506.152 87.656 504.883 88.6373 503.24 89.32C501.597 90.024 499.645 90.376 497.384 90.376C495.933 90.376 494.685 90.184 493.64 89.8C492.595 89.416 491.784 88.8827 491.208 88.2C490.653 87.5173 490.376 86.728 490.376 85.832C490.376 85.1067 490.579 84.424 490.984 83.784C491.389 83.144 491.965 82.632 492.712 82.248C493.459 81.864 494.323 81.672 495.304 81.672C496.733 81.672 497.917 81.9707 498.856 82.568C499.795 83.144 500.52 83.912 501.032 84.872C501.544 85.8107 501.832 86.824 501.896 87.912L499.592 88.296C499.507 86.9307 499.08 85.8107 498.312 84.936C497.565 84.04 496.552 83.592 495.272 83.592C494.547 83.592 493.939 83.7947 493.448 84.2C492.957 84.6053 492.712 85.0853 492.712 85.64C492.712 86.408 493.107 87.016 493.896 87.464C494.685 87.912 495.709 88.136 496.968 88.136C498.781 88.136 500.349 87.8907 501.672 87.4C503.016 86.9093 504.04 86.1947 504.744 85.256C505.469 84.3173 505.832 83.1867 505.832 81.864C505.832 80.8187 505.523 79.88 504.904 79.048C504.285 78.216 503.432 77.5653 502.344 77.096C501.277 76.6053 500.051 76.36 498.664 76.36C497.32 76.36 496.115 76.5093 495.048 76.808C493.981 77.0853 492.979 77.4907 492.04 78.024C491.123 78.5573 490.205 79.2293 489.288 80.04C488.392 80.8293 487.432 81.736 486.408 82.76L484.584 80.872C485.245 80.3387 485.971 79.7413 486.76 79.08C487.571 78.3973 488.381 77.7253 489.192 77.064C490.003 76.3813 490.749 75.752 491.432 75.176C492.136 74.5787 492.723 74.088 493.192 73.704C493.64 73.3413 494.195 72.8827 494.856 72.328C495.539 71.752 496.243 71.1547 496.968 70.536C497.693 69.9173 498.376 69.3307 499.016 68.776C499.677 68.2213 500.211 67.7733 500.616 67.432C500.275 67.432 499.773 67.4533 499.112 67.496C498.451 67.5173 497.715 67.5493 496.904 67.592C496.093 67.6133 495.283 67.6453 494.472 67.688C493.683 67.7307 492.957 67.7733 492.296 67.816C491.656 67.8373 491.165 67.8587 490.824 67.88C490.483 67.9013 490.131 67.9227 489.768 67.944C489.405 67.9653 489.053 68.008 488.712 68.072L488.616 65.416ZM518.312 66.76C519.123 66.7813 520.147 66.792 521.384 66.792C522.643 66.7707 523.955 66.7173 525.32 66.632C526.685 66.5253 527.933 66.408 529.064 66.28C529.789 66.1733 530.547 66.056 531.336 65.928C532.147 65.7787 532.925 65.6187 533.672 65.448C534.44 65.2773 535.144 65.1067 535.784 64.936C536.424 64.7653 536.936 64.5947 537.32 64.424L539.016 66.632C538.653 66.7173 538.323 66.8027 538.024 66.888C537.725 66.9733 537.459 67.048 537.224 67.112C536.605 67.2613 535.88 67.4213 535.048 67.592C534.237 67.7627 533.373 67.9333 532.456 68.104C531.56 68.2533 530.675 68.3813 529.8 68.488C528.627 68.6587 527.379 68.7867 526.056 68.872C524.755 68.9573 523.485 69.0213 522.248 69.064C521.011 69.0853 519.912 69.1067 518.952 69.128L518.312 66.76ZM520.104 88.552C521.939 87.6987 523.453 86.6747 524.648 85.48C525.864 84.2853 526.771 82.856 527.368 81.192C527.965 79.528 528.264 77.5973 528.264 75.4C528.264 75.4 528.264 75.1013 528.264 74.504C528.264 73.8853 528.264 73.0427 528.264 71.976C528.264 70.888 528.264 69.608 528.264 68.136L530.856 67.784C530.856 68.296 530.856 68.8827 530.856 69.544C530.856 70.184 530.856 70.856 530.856 71.56C530.856 72.2427 530.856 72.872 530.856 73.448C530.856 74.024 530.856 74.4933 530.856 74.856C530.856 75.1973 530.856 75.368 530.856 75.368C530.856 77.6293 530.579 79.6773 530.024 81.512C529.491 83.3253 528.616 84.9573 527.4 86.408C526.205 87.8587 524.616 89.16 522.632 90.312L520.104 88.552ZM515.816 74.376C516.179 74.3973 516.616 74.4293 517.128 74.472C517.64 74.4933 518.141 74.504 518.632 74.504C518.931 74.504 519.496 74.504 520.328 74.504C521.16 74.504 522.163 74.504 523.336 74.504C524.531 74.504 525.8 74.504 527.144 74.504C528.509 74.504 529.864 74.504 531.208 74.504C532.573 74.504 533.843 74.504 535.016 74.504C536.189 74.504 537.192 74.504 538.024 74.504C538.856 74.504 539.411 74.504 539.688 74.504C539.923 74.504 540.189 74.504 540.488 74.504C540.808 74.4827 541.117 74.4613 541.416 74.44C541.736 74.4187 542.003 74.3973 542.216 74.376V77.032C541.875 76.9893 541.48 76.9573 541.032 76.936C540.584 76.9147 540.157 76.904 539.752 76.904C539.475 76.904 538.92 76.904 538.088 76.904C537.277 76.904 536.275 76.904 535.08 76.904C533.907 76.904 532.637 76.904 531.272 76.904C529.928 76.904 528.573 76.904 527.208 76.904C525.843 76.904 524.563 76.904 523.368 76.904C522.173 76.904 521.16 76.904 520.328 76.904C519.517 76.904 518.973 76.904 518.696 76.904C518.184 76.904 517.672 76.9147 517.16 76.936C516.669 76.9573 516.221 76.9893 515.816 77.032V74.376ZM557.008 69.416C557.072 69.6933 557.136 70.0027 557.2 70.344C557.285 70.6853 557.37 71.0587 557.456 71.464C557.584 71.912 557.765 72.6053 558 73.544C558.256 74.4613 558.554 75.5173 558.896 76.712C559.237 77.9067 559.578 79.144 559.92 80.424C560.282 81.6827 560.624 82.8987 560.944 84.072C561.285 85.2453 561.573 86.2693 561.808 87.144C562.064 87.9973 562.245 88.616 562.352 89C562.437 89.192 562.512 89.416 562.576 89.672C562.661 89.9493 562.746 90.216 562.832 90.472C562.917 90.7493 562.992 90.984 563.056 91.176L560.336 91.88C560.293 91.5173 560.229 91.1333 560.144 90.728C560.08 90.344 559.984 89.9493 559.856 89.544C559.749 89.1813 559.568 88.552 559.312 87.656C559.077 86.76 558.789 85.7147 558.448 84.52C558.128 83.3253 557.797 82.088 557.456 80.808C557.114 79.528 556.773 78.2907 556.432 77.096C556.112 75.9013 555.824 74.856 555.568 73.96C555.333 73.0427 555.152 72.392 555.024 72.008C554.917 71.6027 554.8 71.24 554.672 70.92C554.544 70.6 554.405 70.3227 554.256 70.088L557.008 69.416ZM572.368 73.8C572.048 74.4827 571.61 75.2507 571.056 76.104C570.522 76.9573 569.925 77.8213 569.264 78.696C568.624 79.5707 567.973 80.4027 567.312 81.192C566.672 81.96 566.085 82.6107 565.552 83.144L563.28 82.024C563.962 81.448 564.656 80.776 565.36 80.008C566.064 79.2187 566.725 78.4187 567.344 77.608C567.962 76.7973 568.442 76.072 568.784 75.432C568.592 75.4533 568.144 75.5387 567.44 75.688C566.757 75.8373 565.904 76.0187 564.88 76.232C563.877 76.424 562.778 76.6373 561.583 76.872C560.389 77.1067 559.184 77.352 557.968 77.608C556.773 77.8427 555.642 78.0667 554.576 78.28C553.509 78.4933 552.581 78.6853 551.792 78.856C551.024 79.0053 550.48 79.112 550.16 79.176L549.52 76.744C549.968 76.7013 550.394 76.6587 550.8 76.616C551.226 76.552 551.685 76.4773 552.176 76.392C552.389 76.3493 552.826 76.264 553.488 76.136C554.17 76.008 554.992 75.8587 555.952 75.688C556.933 75.496 557.978 75.304 559.088 75.112C560.197 74.8987 561.306 74.6853 562.416 74.472C563.546 74.2587 564.602 74.056 565.584 73.864C566.565 73.672 567.408 73.512 568.112 73.384C568.816 73.2347 569.296 73.128 569.552 73.064C569.744 73.0213 569.946 72.968 570.16 72.904C570.394 72.8187 570.597 72.744 570.768 72.68L572.368 73.8ZM583.952 65.544C584.528 65.928 585.189 66.408 585.936 66.984C586.682 67.5387 587.44 68.136 588.208 68.776C588.997 69.3947 589.733 70.0027 590.416 70.6C591.098 71.1973 591.664 71.72 592.112 72.168L590.096 74.184C589.69 73.7787 589.168 73.2773 588.528 72.68C587.888 72.0827 587.184 71.464 586.416 70.824C585.648 70.1627 584.89 69.544 584.144 68.968C583.397 68.3707 582.725 67.88 582.128 67.496L583.952 65.544ZM581.2 86.984C583.077 86.7067 584.784 86.3227 586.32 85.832C587.877 85.3413 589.296 84.7867 590.576 84.168C591.856 83.5493 592.997 82.9307 594 82.312C595.642 81.288 597.157 80.1147 598.544 78.792C599.93 77.448 601.146 76.0613 602.192 74.632C603.237 73.2027 604.069 71.8373 604.688 70.536L606.224 73.256C605.498 74.5787 604.602 75.9227 603.536 77.288C602.469 78.6533 601.264 79.9653 599.92 81.224C598.576 82.4827 597.093 83.624 595.472 84.648C594.405 85.3093 593.232 85.96 591.952 86.6C590.693 87.24 589.306 87.8267 587.792 88.36C586.298 88.872 584.666 89.288 582.896 89.608L581.2 86.984ZM633.663 67.592C633.556 67.72 633.417 67.9333 633.247 68.232C633.097 68.5093 632.969 68.7653 632.863 69C632.457 70.0453 631.924 71.208 631.263 72.488C630.601 73.7467 629.865 74.9947 629.055 76.232C628.244 77.4693 627.391 78.5893 626.495 79.592C625.321 80.9147 624.031 82.2053 622.623 83.464C621.215 84.7013 619.732 85.864 618.175 86.952C616.617 88.0187 614.996 88.936 613.311 89.704L611.263 87.56C612.991 86.8773 614.644 86.0347 616.223 85.032C617.823 84.008 619.316 82.8987 620.703 81.704C622.111 80.488 623.359 79.272 624.447 78.056C625.172 77.224 625.887 76.296 626.591 75.272C627.316 74.2267 627.956 73.1707 628.511 72.104C629.087 71.016 629.503 70.0347 629.759 69.16C629.588 69.16 629.183 69.16 628.543 69.16C627.903 69.16 627.145 69.16 626.271 69.16C625.396 69.16 624.479 69.16 623.519 69.16C622.559 69.16 621.641 69.16 620.767 69.16C619.892 69.16 619.135 69.16 618.495 69.16C617.876 69.16 617.471 69.16 617.279 69.16C616.916 69.16 616.5 69.1707 616.031 69.192C615.583 69.2133 615.167 69.2347 614.783 69.256C614.42 69.2773 614.175 69.2987 614.047 69.32V66.408C614.196 66.4293 614.463 66.4613 614.847 66.504C615.252 66.5253 615.679 66.5467 616.127 66.568C616.575 66.5893 616.959 66.6 617.279 66.6C617.513 66.6 617.94 66.6 618.559 66.6C619.177 66.6 619.913 66.6 620.767 66.6C621.641 66.6 622.548 66.6 623.487 66.6C624.425 66.6 625.321 66.6 626.175 66.6C627.049 66.6 627.796 66.6 628.415 66.6C629.033 66.6 629.439 66.6 629.631 66.6C630.164 66.6 630.633 66.5787 631.039 66.536C631.465 66.4933 631.796 66.4293 632.031 66.344L633.663 67.592ZM626.911 77.896C627.785 78.6213 628.681 79.4213 629.599 80.296C630.537 81.1707 631.455 82.0773 632.351 83.016C633.247 83.9333 634.079 84.8187 634.847 85.672C635.615 86.504 636.276 87.2613 636.831 87.944L634.591 89.864C633.844 88.84 632.948 87.7413 631.903 86.568C630.857 85.3733 629.748 84.1893 628.575 83.016C627.423 81.8213 626.26 80.7227 625.087 79.72L626.911 77.896ZM654.239 63.848C654.132 64.2747 654.047 64.6693 653.983 65.032C653.94 65.3733 653.887 65.7253 653.823 66.088C653.737 66.6853 653.631 67.432 653.503 68.328C653.396 69.224 653.268 70.2053 653.119 71.272C652.991 72.3387 652.852 73.4373 652.703 74.568C652.575 75.6987 652.447 76.7973 652.319 77.864C652.212 78.9307 652.127 79.9013 652.063 80.776C651.999 81.6507 651.967 82.376 651.967 82.952C651.967 84.5093 652.404 85.736 653.279 86.632C654.175 87.528 655.529 87.976 657.343 87.976C658.985 87.976 660.393 87.752 661.567 87.304C662.761 86.856 663.679 86.2267 664.319 85.416C664.98 84.584 665.311 83.624 665.311 82.536C665.311 81.4693 665.023 80.3707 664.447 79.24C663.871 78.088 662.996 77.0107 661.823 76.008L664.639 75.432C665.727 76.648 666.537 77.8427 667.071 79.016C667.625 80.168 667.903 81.4373 667.903 82.824C667.903 84.4027 667.455 85.768 666.559 86.92C665.684 88.072 664.457 88.9467 662.879 89.544C661.3 90.1627 659.455 90.472 657.343 90.472C655.892 90.472 654.569 90.2373 653.375 89.768C652.201 89.32 651.263 88.5733 650.559 87.528C649.855 86.4827 649.503 85.0853 649.503 83.336C649.503 82.6533 649.545 81.7573 649.631 80.648C649.737 79.5387 649.865 78.3333 650.015 77.032C650.185 75.7093 650.356 74.3653 650.527 73C650.719 71.6133 650.879 70.312 651.007 69.096C651.156 67.88 651.263 66.824 651.327 65.928C651.391 65.3733 651.423 64.936 651.423 64.616C651.423 64.2747 651.401 63.9547 651.359 63.656L654.239 63.848ZM643.967 68.104C644.884 68.3813 645.887 68.616 646.975 68.808C648.063 69 649.161 69.1493 650.271 69.256C651.38 69.3413 652.404 69.384 653.343 69.384C654.58 69.384 655.743 69.352 656.831 69.288C657.94 69.224 658.953 69.1173 659.871 68.968L659.807 71.368C658.783 71.4533 657.769 71.528 656.767 71.592C655.764 71.6347 654.612 71.656 653.311 71.656C652.372 71.656 651.348 71.6133 650.239 71.528C649.129 71.4213 648.02 71.272 646.911 71.08C645.801 70.888 644.777 70.6747 643.839 70.44L643.967 68.104ZM643.199 76.04C644.223 76.4027 645.3 76.6907 646.431 76.904C647.583 77.096 648.713 77.2347 649.823 77.32C650.932 77.4053 651.988 77.448 652.991 77.448C654.079 77.448 655.177 77.4267 656.287 77.384C657.417 77.32 658.537 77.2027 659.647 77.032L659.583 79.464C658.537 79.592 657.503 79.6773 656.479 79.72C655.455 79.7627 654.399 79.784 653.311 79.784C651.583 79.784 649.801 79.6773 647.967 79.464C646.153 79.2507 644.521 78.9307 643.071 78.504L643.199 76.04ZM676.639 82.344V78.28C677.641 77.448 678.548 76.5733 679.359 75.656C680.169 74.7173 680.809 73.7253 681.279 72.68C681.769 71.6347 682.015 70.536 682.015 69.384C682.015 68.488 681.812 67.7947 681.407 67.304C681.023 66.792 680.436 66.536 679.647 66.536C678.985 66.536 678.452 66.728 678.047 67.112C677.663 67.496 677.471 68.0187 677.471 68.68C677.471 68.9787 677.503 69.256 677.567 69.512C677.631 69.768 677.705 70.0453 677.791 70.344L673.791 71.208C673.663 70.7813 673.556 70.3653 673.471 69.96C673.385 69.5333 673.343 69.1067 673.343 68.68C673.343 66.888 673.897 65.4587 675.007 64.392C676.116 63.3253 677.684 62.792 679.711 62.792C681.823 62.792 683.444 63.3573 684.575 64.488C685.727 65.6187 686.303 67.2293 686.303 69.32C686.303 70.6853 686.057 71.944 685.567 73.096C685.097 74.248 684.425 75.3253 683.551 76.328C682.697 77.3307 681.695 78.2907 680.543 79.208V82.344H676.639ZM676.479 89V84.744H680.735V89H676.479ZM690.411 82.92L689.099 63.112H693.451L691.915 82.92H690.411ZM689.067 89V84.776H693.291V89H689.067Z" fill="white"/>
<path d="M51.36 21.68C51.36 22.32 51.5867 22.8667 52.04 23.32C52.4933 23.7467 53.0267 23.96 53.64 23.96C54.28 23.96 54.8267 23.7467 55.28 23.32C55.7333 22.8667 55.96 22.32 55.96 21.68C55.96 21.04 55.7333 20.4933 55.28 20.04C54.8267 19.5867 54.28 19.36 53.64 19.36C53.0267 19.36 52.4933 19.5867 52.04 20.04C51.5867 20.4933 51.36 21.04 51.36 21.68ZM48.88 21.68C48.88 20.8 49.0933 20 49.52 19.28C49.9733 18.5333 50.56 17.9467 51.28 17.52C52 17.0933 52.7867 16.88 53.64 16.88C54.52 16.88 55.32 17.0933 56.04 17.52C56.7867 17.9467 57.3733 18.5333 57.8 19.28C58.2267 20 58.44 20.8 58.44 21.68C58.44 22.5333 58.2267 23.32 57.8 24.04C57.3733 24.76 56.7867 25.3467 56.04 25.8C55.32 26.2267 54.52 26.44 53.64 26.44C52.7867 26.44 52 26.2267 51.28 25.8C50.56 25.3467 49.9733 24.76 49.52 24.04C49.0933 23.32 48.88 22.5333 48.88 21.68ZM53.72 24.84C53.5333 25.2133 53.3733 25.6667 53.24 26.2C53.1067 26.7067 52.9733 27.1733 52.84 27.6C52.6267 28.5867 52.3467 29.6933 52 30.92C51.6533 32.12 51.24 33.3733 50.76 34.68C50.28 35.9867 49.7067 37.28 49.04 38.56C48.4 39.84 47.6667 41.04 46.84 42.16C45.64 43.76 44.24 45.2533 42.64 46.64C41.04 48.0267 39.2533 49.28 37.28 50.4C35.3067 51.52 33.1333 52.4667 30.76 53.24L26.4 48.44C29.0667 47.8 31.36 47.0133 33.28 46.08C35.2 45.1467 36.8667 44.08 38.28 42.88C39.72 41.68 40.9867 40.4 42.08 39.04C42.96 37.92 43.7067 36.7067 44.32 35.4C44.96 34.0933 45.48 32.7867 45.88 31.48C46.3067 30.1467 46.6 28.9067 46.76 27.76C46.36 27.76 45.6933 27.76 44.76 27.76C43.8533 27.76 42.7733 27.76 41.52 27.76C40.2933 27.76 39 27.76 37.64 27.76C36.3067 27.76 35.0133 27.76 33.76 27.76C32.5067 27.76 31.3733 27.76 30.36 27.76C29.3733 27.76 28.64 27.76 28.16 27.76C27.2267 27.76 26.32 27.7733 25.44 27.8C24.5867 27.8267 23.9067 27.8667 23.4 27.92V22.28C23.8 22.3333 24.28 22.3867 24.84 22.44C25.4267 22.4933 26.0133 22.5333 26.6 22.56C27.2133 22.5867 27.7333 22.6 28.16 22.6C28.5867 22.6 29.1867 22.6 29.96 22.6C30.76 22.6 31.68 22.6 32.72 22.6C33.76 22.6 34.84 22.6 35.96 22.6C37.1067 22.6 38.24 22.6 39.36 22.6C40.5067 22.6 41.5733 22.6 42.56 22.6C43.5467 22.6 44.4 22.6 45.12 22.6C45.84 22.6 46.36 22.6 46.68 22.6C47.08 22.6 47.56 22.5867 48.12 22.56C48.7067 22.5333 49.2667 22.44 49.8 22.28L53.72 24.84ZM65.04 22.64C65.8667 22.6667 66.64 22.6933 67.36 22.72C68.1067 22.72 68.7467 22.72 69.28 22.72C69.7067 22.72 70.36 22.72 71.24 22.72C72.1467 22.72 73.2 22.72 74.4 22.72C75.6 22.72 76.88 22.72 78.24 22.72C79.6 22.72 80.96 22.72 82.32 22.72C83.7067 22.72 85 22.72 86.2 22.72C87.4 22.72 88.44 22.72 89.32 22.72C90.2267 22.72 90.88 22.72 91.28 22.72C91.7867 22.72 92.3867 22.72 93.08 22.72C93.8 22.6933 94.52 22.6667 95.24 22.64C95.2133 23.2533 95.1867 23.9067 95.16 24.6C95.16 25.2667 95.16 25.9067 95.16 26.52C95.16 26.8933 95.16 27.48 95.16 28.28C95.16 29.0533 95.16 29.9867 95.16 31.08C95.16 32.1467 95.16 33.2933 95.16 34.52C95.16 35.72 95.16 36.9333 95.16 38.16C95.16 39.3867 95.16 40.5467 95.16 41.64C95.16 42.7067 95.16 43.64 95.16 44.44C95.16 45.2133 95.16 45.7733 95.16 46.12C95.16 46.52 95.16 47.0267 95.16 47.64C95.1867 48.2267 95.2 48.8267 95.2 49.44C95.2 50.0267 95.2 50.5467 95.2 51C95.2267 51.4267 95.24 51.6533 95.24 51.68H89.72C89.72 51.6267 89.72 51.3067 89.72 50.72C89.7467 50.1067 89.76 49.3867 89.76 48.56C89.7867 47.7333 89.8 46.96 89.8 46.24C89.8 45.8933 89.8 45.3067 89.8 44.48C89.8 43.6533 89.8 42.68 89.8 41.56C89.8 40.44 89.8 39.2533 89.8 38C89.8 36.7467 89.8 35.52 89.8 34.32C89.8 33.12 89.8 32.0267 89.8 31.04C89.8 30.0533 89.8 29.2667 89.8 28.68C89.8 28.0933 89.8 27.8 89.8 27.8H70.48C70.48 27.8 70.48 28.0933 70.48 28.68C70.48 29.2667 70.48 30.0533 70.48 31.04C70.48 32 70.48 33.0933 70.48 34.32C70.48 35.52 70.48 36.7467 70.48 38C70.48 39.2267 70.48 40.4133 70.48 41.56C70.48 42.68 70.48 43.6533 70.48 44.48C70.48 45.3067 70.48 45.8933 70.48 46.24C70.48 46.72 70.48 47.2667 70.48 47.88C70.48 48.4667 70.48 49.04 70.48 49.6C70.5067 50.16 70.52 50.6267 70.52 51C70.52 51.4 70.52 51.6267 70.52 51.68H65C65 51.6267 65 51.4 65 51C65.0267 50.6 65.04 50.1067 65.04 49.52C65.0667 48.9333 65.08 48.3333 65.08 47.72C65.1067 47.1067 65.12 46.56 65.12 46.08C65.12 45.7333 65.12 45.1733 65.12 44.4C65.12 43.6 65.12 42.6533 65.12 41.56C65.12 40.4667 65.12 39.32 65.12 38.12C65.12 36.8933 65.12 35.6667 65.12 34.44C65.12 33.2133 65.12 32.0667 65.12 31C65.12 29.9067 65.12 28.9733 65.12 28.2C65.12 27.4267 65.12 26.8667 65.12 26.52C65.12 25.96 65.12 25.32 65.12 24.6C65.12 23.8533 65.0933 23.2 65.04 22.64ZM91.8 44.4V49.52H67.76V44.4H91.8ZM119 19.68C118.893 20.1867 118.773 20.7467 118.64 21.36C118.507 21.9467 118.387 22.4933 118.28 23C118.173 23.5867 118.04 24.2533 117.88 25C117.72 25.72 117.56 26.4533 117.4 27.2C117.267 27.92 117.12 28.6267 116.96 29.32C116.693 30.4667 116.36 31.8 115.96 33.32C115.56 34.84 115.093 36.48 114.56 38.24C114.027 39.9733 113.427 41.72 112.76 43.48C112.093 45.24 111.387 46.96 110.64 48.64C109.893 50.2933 109.093 51.7867 108.24 53.12L103.04 51.04C103.973 49.7867 104.84 48.3867 105.64 46.84C106.467 45.2667 107.213 43.6667 107.88 42.04C108.547 40.3867 109.133 38.76 109.64 37.16C110.173 35.5333 110.627 34.0267 111 32.64C111.4 31.2533 111.707 30.0667 111.92 29.08C112.293 27.2667 112.587 25.52 112.8 23.84C113.013 22.16 113.093 20.5733 113.04 19.08L119 19.68ZM132.76 23.72C133.4 24.6 134.053 25.68 134.72 26.96C135.413 28.2133 136.093 29.5467 136.76 30.96C137.427 32.3733 138.027 33.7333 138.56 35.04C139.093 36.3467 139.507 37.48 139.8 38.44L134.72 40.76C134.48 39.64 134.12 38.4 133.64 37.04C133.187 35.68 132.653 34.3067 132.04 32.92C131.427 31.5067 130.773 30.1733 130.08 28.92C129.413 27.6667 128.72 26.6133 128 25.76L132.76 23.72ZM102.76 27.88C103.48 27.9333 104.187 27.96 104.88 27.96C105.6 27.9333 106.32 27.9067 107.04 27.88C107.707 27.8533 108.507 27.8133 109.44 27.76C110.373 27.68 111.36 27.6 112.4 27.52C113.467 27.44 114.533 27.36 115.6 27.28C116.667 27.1733 117.653 27.0933 118.56 27.04C119.467 26.9867 120.213 26.96 120.8 26.96C122.24 26.96 123.493 27.2 124.56 27.68C125.627 28.1333 126.467 28.92 127.08 30.04C127.72 31.16 128.04 32.68 128.04 34.6C128.04 36.1733 127.973 37.88 127.84 39.72C127.707 41.56 127.467 43.32 127.12 45C126.8 46.68 126.347 48.1067 125.76 49.28C125.12 50.6667 124.24 51.6267 123.12 52.16C122.027 52.6933 120.72 52.96 119.2 52.96C118.453 52.96 117.64 52.8933 116.76 52.76C115.88 52.6533 115.093 52.5333 114.4 52.4L113.56 47.12C114.067 47.2533 114.627 47.3867 115.24 47.52C115.88 47.6533 116.48 47.76 117.04 47.84C117.627 47.92 118.093 47.96 118.44 47.96C119.107 47.96 119.693 47.84 120.2 47.6C120.707 47.3333 121.12 46.88 121.44 46.24C121.813 45.4667 122.12 44.4667 122.36 43.24C122.6 42.0133 122.773 40.6933 122.88 39.28C123.013 37.84 123.08 36.4667 123.08 35.16C123.08 34.0933 122.92 33.3067 122.6 32.8C122.307 32.2933 121.867 31.96 121.28 31.8C120.72 31.6133 120.027 31.52 119.2 31.52C118.587 31.52 117.76 31.5733 116.72 31.68C115.68 31.76 114.56 31.8667 113.36 32C112.187 32.1067 111.093 32.2267 110.08 32.36C109.067 32.4933 108.28 32.5867 107.72 32.64C107.133 32.7467 106.387 32.8667 105.48 33C104.6 33.1067 103.853 33.2133 103.24 33.32L102.76 27.88ZM132.04 18.16C132.387 18.64 132.747 19.2133 133.12 19.88C133.52 20.5467 133.907 21.2133 134.28 21.88C134.653 22.5467 134.973 23.1333 135.24 23.64L132 25.04C131.733 24.48 131.427 23.8667 131.08 23.2C130.733 22.5333 130.373 21.8667 130 21.2C129.627 20.5333 129.253 19.96 128.88 19.48L132.04 18.16ZM136.8 16.36C137.147 16.8667 137.52 17.4533 137.92 18.12C138.32 18.7867 138.707 19.4533 139.08 20.12C139.48 20.7867 139.787 21.3467 140 21.8L136.84 23.16C136.413 22.3333 135.907 21.4 135.32 20.36C134.733 19.2933 134.16 18.3867 133.6 17.64L136.8 16.36ZM150.6 30.92H172.36V35.36H150.6V30.92ZM150.6 39.48H172.36V43.92H150.6V39.48ZM150.6 48.08H172.36V52.52H150.6V48.08ZM147.36 22.2H176.4V54.48H171.32V26.8H152.2V54.56H147.36V22.2ZM158.72 16.96L164.52 17.6C164.04 18.9067 163.533 20.1867 163 21.44C162.467 22.6933 161.973 23.7733 161.52 24.68L157.12 23.88C157.333 23.2133 157.547 22.48 157.76 21.68C157.973 20.8533 158.16 20.04 158.32 19.24C158.507 18.4133 158.64 17.6533 158.72 16.96ZM190.2 31.72H211.84V36.36H190.2V31.72ZM210.24 31.72H215.28C215.28 31.72 215.28 31.8533 215.28 32.12C215.28 32.36 215.28 32.6533 215.28 33C215.28 33.32 215.267 33.5867 215.24 33.8C215.133 36.8133 215.013 39.4133 214.88 41.6C214.747 43.76 214.587 45.56 214.4 47C214.24 48.44 214.04 49.5867 213.8 50.44C213.56 51.2933 213.267 51.9333 212.92 52.36C212.387 53 211.827 53.4533 211.24 53.72C210.68 53.9867 210.013 54.1733 209.24 54.28C208.573 54.3867 207.693 54.44 206.6 54.44C205.507 54.4667 204.36 54.4533 203.16 54.4C203.133 53.68 202.973 52.8533 202.68 51.92C202.387 51.0133 202.027 50.2267 201.6 49.56C202.72 49.64 203.76 49.6933 204.72 49.72C205.68 49.7467 206.4 49.76 206.88 49.76C207.253 49.76 207.56 49.7333 207.8 49.68C208.04 49.6 208.28 49.44 208.52 49.2C208.84 48.8533 209.093 48.0933 209.28 46.92C209.493 45.72 209.68 43.96 209.84 41.64C210 39.2933 210.133 36.2667 210.24 32.56V31.72ZM194.68 17.52L199.88 19.04C198.893 21.36 197.707 23.6 196.32 25.76C194.96 27.92 193.48 29.9067 191.88 31.72C190.307 33.5333 188.667 35.1067 186.96 36.44C186.667 36.0933 186.267 35.68 185.76 35.2C185.253 34.6933 184.733 34.2 184.2 33.72C183.693 33.24 183.24 32.8533 182.84 32.56C184.493 31.44 186.067 30.1067 187.56 28.56C189.08 26.9867 190.453 25.2667 191.68 23.4C192.907 21.5067 193.907 19.5467 194.68 17.52ZM209.92 17.44C210.56 18.72 211.333 20.0267 212.24 21.36C213.147 22.6933 214.133 24 215.2 25.28C216.293 26.5333 217.4 27.72 218.52 28.84C219.667 29.96 220.787 30.9333 221.88 31.76C221.453 32.08 220.973 32.5067 220.44 33.04C219.933 33.5467 219.44 34.0667 218.96 34.6C218.507 35.1333 218.12 35.6267 217.8 36.08C216.68 35.04 215.547 33.88 214.4 32.6C213.253 31.2933 212.12 29.92 211 28.48C209.907 27.0133 208.867 25.5067 207.88 23.96C206.893 22.3867 206 20.84 205.2 19.32L209.92 17.44ZM197.32 33.08H202.56C202.373 35.32 202.067 37.5067 201.64 39.64C201.213 41.7733 200.507 43.7867 199.52 45.68C198.56 47.5733 197.16 49.3067 195.32 50.88C193.507 52.4267 191.107 53.7467 188.12 54.84C187.933 54.3867 187.667 53.8933 187.32 53.36C186.973 52.8267 186.6 52.2933 186.2 51.76C185.8 51.2533 185.4 50.8133 185 50.44C187.693 49.5867 189.827 48.5333 191.4 47.28C192.973 46 194.16 44.6133 194.96 43.12C195.76 41.6 196.307 39.9867 196.6 38.28C196.92 36.5733 197.16 34.84 197.32 33.08ZM246.84 23.6C246.573 25.6267 246.227 27.7867 245.8 30.08C245.373 32.3733 244.8 34.6933 244.08 37.04C243.307 39.7333 242.4 42.0533 241.36 44C240.32 45.9467 239.173 47.4533 237.92 48.52C236.693 49.56 235.347 50.08 233.88 50.08C232.413 50.08 231.053 49.5867 229.8 48.6C228.573 47.5867 227.587 46.2 226.84 44.44C226.12 42.68 225.76 40.68 225.76 38.44C225.76 36.12 226.227 33.9333 227.16 31.88C228.093 29.8267 229.387 28.0133 231.04 26.44C232.72 24.84 234.667 23.5867 236.88 22.68C239.12 21.7733 241.533 21.32 244.12 21.32C246.6 21.32 248.827 21.72 250.8 22.52C252.8 23.32 254.507 24.4267 255.92 25.84C257.333 27.2533 258.413 28.9067 259.16 30.8C259.907 32.6933 260.28 34.7333 260.28 36.92C260.28 39.72 259.707 42.2267 258.56 44.44C257.413 46.6533 255.707 48.48 253.44 49.92C251.2 51.36 248.4 52.3467 245.04 52.88L242.04 48.12C242.813 48.04 243.493 47.9467 244.08 47.84C244.667 47.7333 245.227 47.6133 245.76 47.48C247.04 47.16 248.227 46.7067 249.32 46.12C250.44 45.5067 251.413 44.76 252.24 43.88C253.067 42.9733 253.707 41.92 254.16 40.72C254.64 39.52 254.88 38.2 254.88 36.76C254.88 35.1867 254.64 33.7467 254.16 32.44C253.68 31.1333 252.973 30 252.04 29.04C251.107 28.0533 249.973 27.3067 248.64 26.8C247.307 26.2667 245.773 26 244.04 26C241.907 26 240.027 26.3867 238.4 27.16C236.773 27.9067 235.4 28.88 234.28 30.08C233.16 31.28 232.307 32.5733 231.72 33.96C231.16 35.3467 230.88 36.6667 230.88 37.92C230.88 39.2533 231.04 40.3733 231.36 41.28C231.68 42.16 232.067 42.8267 232.52 43.28C233 43.7067 233.507 43.92 234.04 43.92C234.6 43.92 235.147 43.64 235.68 43.08C236.24 42.4933 236.787 41.6133 237.32 40.44C237.853 39.2667 238.387 37.7867 238.92 36C239.533 34.08 240.053 32.0267 240.48 29.84C240.907 27.6533 241.213 25.52 241.4 23.44L246.84 23.6ZM283.72 23.56H302.88V28.12H281.44L283.72 23.56ZM288.96 32.32H301.88V36.72H288.96V32.32ZM288.92 41.2H302.4V45.68H288.92V41.2ZM286.52 25.08H291.48V54.56H286.52V25.08ZM284.64 17.4L289.24 18.6C288.493 20.76 287.613 22.9067 286.6 25.04C285.613 27.1733 284.533 29.1733 283.36 31.04C282.187 32.88 280.987 34.5067 279.76 35.92C279.52 35.6 279.173 35.2267 278.72 34.8C278.267 34.3733 277.8 33.96 277.32 33.56C276.867 33.1333 276.453 32.8 276.08 32.56C277.28 31.36 278.4 29.9467 279.44 28.32C280.507 26.6933 281.48 24.9467 282.36 23.08C283.267 21.1867 284.027 19.2933 284.64 17.4ZM274.04 17.16L278.68 18.64C277.827 20.9067 276.813 23.1867 275.64 25.48C274.467 27.7733 273.187 29.9467 271.8 32C270.413 34.0267 268.987 35.8 267.52 37.32C267.36 36.92 267.12 36.4 266.8 35.76C266.507 35.12 266.187 34.4667 265.84 33.8C265.493 33.1333 265.173 32.6 264.88 32.2C266.107 30.9733 267.28 29.56 268.4 27.96C269.547 26.36 270.6 24.64 271.56 22.8C272.547 20.96 273.373 19.08 274.04 17.16ZM270 28.24L274.84 23.4V23.44V54.52H270V28.24ZM317.76 23.2V28.56H331.84V23.2H317.76ZM313.12 18.6H336.72V33.12H313.12V18.6ZM307.6 36.48H322.92V54.36H318.12V41.08H312.16V54.6H307.6V36.48ZM326.28 36.48H342.12V54.4H337.32V41.08H330.88V54.6H326.28V36.48ZM309.6 47.96H320.12V52.56H309.6V47.96ZM328.48 47.96H339.68V52.56H328.48V47.96ZM365.04 18.92C364.907 19.64 364.693 20.5733 364.4 21.72C364.107 22.8667 363.68 24.16 363.12 25.6C362.693 26.5867 362.2 27.6133 361.64 28.68C361.107 29.72 360.56 30.6533 360 31.48C360.347 31.32 360.787 31.1867 361.32 31.08C361.853 30.9467 362.4 30.8533 362.96 30.8C363.547 30.72 364.067 30.68 364.52 30.68C366.2 30.68 367.587 31.16 368.68 32.12C369.8 33.08 370.36 34.5067 370.36 36.4C370.36 36.9333 370.36 37.5867 370.36 38.36C370.387 39.1333 370.413 39.9467 370.44 40.8C370.467 41.6267 370.493 42.44 370.52 43.24C370.547 44.04 370.56 44.76 370.56 45.4H365.76C365.813 44.9467 365.84 44.4133 365.84 43.8C365.867 43.16 365.88 42.4933 365.88 41.8C365.907 41.1067 365.92 40.44 365.92 39.8C365.947 39.1333 365.96 38.5333 365.96 38C365.96 36.72 365.613 35.84 364.92 35.36C364.253 34.8533 363.507 34.6 362.68 34.6C361.56 34.6 360.427 34.88 359.28 35.44C358.16 35.9733 357.213 36.6133 356.44 37.36C355.853 37.9467 355.253 38.6 354.64 39.32C354.053 40.04 353.413 40.8533 352.72 41.76L348.44 38.56C350.173 36.96 351.667 35.4133 352.92 33.92C354.2 32.4267 355.28 30.9467 356.16 29.48C357.04 28.0133 357.76 26.5467 358.32 25.08C358.72 24.0133 359.04 22.9067 359.28 21.76C359.547 20.5867 359.707 19.4933 359.76 18.48L365.04 18.92ZM350 22.6C351.013 22.76 352.187 22.88 353.52 22.96C354.853 23.04 356.027 23.08 357.04 23.08C358.8 23.08 360.72 23.04 362.8 22.96C364.907 22.88 367.04 22.7467 369.2 22.56C371.36 22.3467 373.413 22.08 375.36 21.76L375.32 26.4C373.907 26.5867 372.373 26.76 370.72 26.92C369.093 27.0533 367.427 27.1733 365.72 27.28C364.04 27.36 362.427 27.4267 360.88 27.48C359.333 27.5067 357.96 27.52 356.76 27.52C356.227 27.52 355.56 27.52 354.76 27.52C353.987 27.4933 353.187 27.4667 352.36 27.44C351.533 27.3867 350.747 27.3333 350 27.28V22.6ZM381.68 33.96C381.253 34.0933 380.747 34.2667 380.16 34.48C379.6 34.6667 379.027 34.8667 378.44 35.08C377.88 35.2667 377.373 35.4533 376.92 35.64C375.64 36.1467 374.12 36.76 372.36 37.48C370.627 38.2 368.813 39.04 366.92 40C365.72 40.64 364.707 41.2667 363.88 41.88C363.053 42.4933 362.427 43.12 362 43.76C361.573 44.3733 361.36 45.0533 361.36 45.8C361.36 46.36 361.48 46.8267 361.72 47.2C361.96 47.5467 362.32 47.8267 362.8 48.04C363.28 48.2533 363.88 48.4 364.6 48.48C365.32 48.56 366.173 48.6 367.16 48.6C368.867 48.6 370.747 48.5067 372.8 48.32C374.853 48.1067 376.76 47.8267 378.52 47.48L378.36 52.64C377.507 52.7467 376.427 52.8533 375.12 52.96C373.813 53.0933 372.453 53.1867 371.04 53.24C369.653 53.2933 368.32 53.32 367.04 53.32C364.96 53.32 363.093 53.12 361.44 52.72C359.787 52.32 358.48 51.64 357.52 50.68C356.587 49.6933 356.12 48.3467 356.12 46.64C356.12 45.2533 356.427 44 357.04 42.88C357.68 41.76 358.52 40.7467 359.56 39.84C360.6 38.9333 361.733 38.12 362.96 37.4C364.213 36.6533 365.44 35.9733 366.64 35.36C367.867 34.72 368.973 34.1733 369.96 33.72C370.947 33.2667 371.867 32.8667 372.72 32.52C373.6 32.1467 374.44 31.7733 375.24 31.4C376.013 31.0533 376.76 30.72 377.48 30.4C378.2 30.0533 378.933 29.6933 379.68 29.32L381.68 33.96ZM419.72 24.76L424.24 25.72C423.92 26.84 423.587 27.9867 423.24 29.16C422.893 30.3067 422.547 31.4133 422.2 32.48C421.853 33.52 421.52 34.44 421.2 35.24L417.52 34.32C417.813 33.44 418.093 32.4533 418.36 31.36C418.653 30.24 418.92 29.1067 419.16 27.96C419.4 26.7867 419.587 25.72 419.72 24.76ZM404.48 25.96L408.28 25.12C408.6 26.08 408.88 27.12 409.12 28.24C409.387 29.36 409.6 30.4533 409.76 31.52C409.947 32.5867 410.067 33.5333 410.12 34.36L406.08 35.32C406.053 34.4667 405.96 33.5067 405.8 32.44C405.64 31.3467 405.44 30.24 405.2 29.12C404.987 27.9733 404.747 26.92 404.48 25.96ZM404.08 19H424.48V23.48H404.08V19ZM402.68 36.36H425.2V40.88H402.68V36.36ZM411.56 20.56H416.28V54.56H411.56V20.56ZM389.52 29.28H401.92V32.92H389.52V29.28ZM389.68 18.28H401.84V21.88H389.68V18.28ZM389.52 34.76H401.92V38.36H389.52V34.76ZM387.6 23.64H403.32V27.44H387.6V23.64ZM391.72 40.28H401.84V52.48H391.72V48.68H397.72V44.08H391.72V40.28ZM389.4 40.28H393.48V54.04H389.4V40.28ZM439.84 20.92H465.4V25.24H439.84V20.92ZM440.24 30.24H465.2V53.48H460.56V34.44H444.64V53.72H440.24V30.24ZM446.72 21.48H451.24V33.36H446.72V21.48ZM453.88 21.44H458.4V33.32H453.88V21.44ZM442.24 47.32H463.96V51.44H442.24V47.32ZM447.16 33.32H451.2V50.52H447.16V33.32ZM453.88 33.28H457.92V50.48H453.88V33.28ZM436.4 17.12L440.72 18.48C439.92 20.6667 438.96 22.8667 437.84 25.08C436.72 27.2933 435.507 29.3867 434.2 31.36C432.893 33.3067 431.547 35.0267 430.16 36.52C430 36.1467 429.773 35.6533 429.48 35.04C429.213 34.4267 428.907 33.8133 428.56 33.2C428.24 32.56 427.947 32.0533 427.68 31.68C428.853 30.5067 429.973 29.1467 431.04 27.6C432.133 26.0267 433.133 24.3467 434.04 22.56C434.947 20.7733 435.733 18.96 436.4 17.12ZM432.56 28.28L437.04 23.76L437.08 23.84V54.56H432.56V28.28ZM484.96 40.72C484.827 39.6533 484.907 38.72 485.2 37.92C485.52 37.12 485.96 36.4 486.52 35.76C487.107 35.12 487.747 34.5333 488.44 34C489.16 33.4667 489.827 32.9467 490.44 32.44C491.08 31.9333 491.6 31.4133 492 30.88C492.4 30.3467 492.6 29.76 492.6 29.12C492.6 28.32 492.4 27.64 492 27.08C491.6 26.52 491.013 26.0933 490.24 25.8C489.493 25.5067 488.587 25.36 487.52 25.36C486.293 25.36 485.173 25.6267 484.16 26.16C483.147 26.6933 482.147 27.48 481.16 28.52L477.88 25.48C479.16 24.0133 480.667 22.84 482.4 21.96C484.16 21.0533 486.093 20.6 488.2 20.6C490.147 20.6 491.867 20.8933 493.36 21.48C494.88 22.0667 496.067 22.96 496.92 24.16C497.8 25.3333 498.24 26.8133 498.24 28.6C498.24 29.5867 498.027 30.4533 497.6 31.2C497.2 31.92 496.667 32.5733 496 33.16C495.36 33.72 494.68 34.2667 493.96 34.8C493.24 35.3067 492.573 35.84 491.96 36.4C491.347 36.96 490.867 37.5867 490.52 38.28C490.173 38.9733 490.04 39.7867 490.12 40.72H484.96ZM487.56 51.36C486.547 51.36 485.707 51.0267 485.04 50.36C484.373 49.6933 484.04 48.8533 484.04 47.84C484.04 46.8 484.373 45.9467 485.04 45.28C485.707 44.6133 486.547 44.28 487.56 44.28C488.573 44.28 489.413 44.6133 490.08 45.28C490.747 45.9467 491.08 46.8 491.08 47.84C491.08 48.8533 490.747 49.6933 490.08 50.36C489.413 51.0267 488.573 51.36 487.56 51.36ZM526.76 40.72L525.68 27.04L525.48 21.08H532.12L531.92 27.04L530.84 40.72H526.76ZM528.8 51.36C527.787 51.36 526.947 51.0267 526.28 50.36C525.613 49.6933 525.28 48.8533 525.28 47.84C525.28 46.8 525.613 45.9467 526.28 45.28C526.947 44.6133 527.787 44.28 528.8 44.28C529.813 44.28 530.653 44.6133 531.32 45.28C531.987 45.9467 532.32 46.8 532.32 47.84C532.32 48.8533 531.987 49.6933 531.32 50.36C530.653 51.0267 529.813 51.36 528.8 51.36Z" fill="white"/>
</svg>
